<mxfile host="app.diagrams.net" modified="2023-12-08T11:54:00.108Z" agent="Mozilla/5.0 (Windows NT 10.0; Win64; x64) AppleWebKit/537.36 (KHTML, like Gecko) Chrome/119.0.0.0 Safari/537.36" etag="vZsbhBQbzeilh_Jd27H1" version="22.1.7" type="device" pages="7">
  <diagram id="GyiC1Q3agGDPkBkKuWdQ" name="component view">
    <mxGraphModel dx="1290" dy="534" grid="1" gridSize="10" guides="1" tooltips="1" connect="1" arrows="1" fold="1" page="1" pageScale="1" pageWidth="827" pageHeight="1169" math="0" shadow="0">
      <root>
        <mxCell id="0" />
        <mxCell id="1" parent="0" />
        <mxCell id="uggKzCtEMk2cHMjs6Qy_-10" value="&lt;&lt;subsystem&gt;&gt; CKB server" style="fontStyle=1;align=center;verticalAlign=top;childLayout=stackLayout;horizontal=1;horizontalStack=0;resizeParent=1;resizeParentMax=0;resizeLast=0;marginBottom=0;container=0;fontSize=15;" parent="1" vertex="1">
          <mxGeometry x="47.12" y="160" width="722.88" height="480" as="geometry" />
        </mxCell>
        <mxCell id="uggKzCtEMk2cHMjs6Qy_-13" value="" style="line;strokeWidth=1;fillColor=none;align=left;verticalAlign=middle;spacingTop=-1;spacingLeft=3;spacingRight=3;rotatable=0;labelPosition=right;points=[];portConstraint=eastwest;container=0;fontSize=14;" parent="1" vertex="1">
          <mxGeometry x="47.12" y="200" width="722.88" height="8" as="geometry" />
        </mxCell>
        <mxCell id="uggKzCtEMk2cHMjs6Qy_-12" value="" style="shape=module;jettyWidth=10;jettyHeight=4;container=0;fontSize=14;" parent="1" vertex="1">
          <mxGeometry x="733" y="170" width="27" height="20" as="geometry">
            <mxPoint x="-36" y="9" as="offset" />
          </mxGeometry>
        </mxCell>
        <mxCell id="NMzGeiKC0gR0xCybBi5c-33" style="rounded=0;orthogonalLoop=1;jettySize=auto;html=1;exitX=0.5;exitY=0;exitDx=0;exitDy=0;endArrow=none;endFill=0;entryX=1.065;entryY=0.595;entryDx=0;entryDy=0;entryPerimeter=0;edgeStyle=orthogonalEdgeStyle;fontSize=14;" parent="1" source="o3Z6A7jvwZWguGTXYTzA-1" target="NMzGeiKC0gR0xCybBi5c-32" edge="1">
          <mxGeometry relative="1" as="geometry">
            <mxPoint x="555" y="317.87" as="targetPoint" />
            <Array as="points">
              <mxPoint x="520" y="401" />
              <mxPoint x="520" y="274" />
            </Array>
          </mxGeometry>
        </mxCell>
        <mxCell id="o3Z6A7jvwZWguGTXYTzA-1" value="Model" style="shape=module;align=center;spacingLeft=20;align=center;verticalAlign=top;whiteSpace=wrap;html=1;fontSize=14;" parent="1" vertex="1">
          <mxGeometry x="491.7499999999999" y="400.87" width="100" height="50" as="geometry" />
        </mxCell>
        <mxCell id="o3Z6A7jvwZWguGTXYTzA-2" value="Mail&lt;br style=&quot;font-size: 14px;&quot;&gt;manager" style="shape=module;align=center;spacingLeft=20;align=center;verticalAlign=top;whiteSpace=wrap;html=1;fontSize=14;" parent="1" vertex="1">
          <mxGeometry x="622" y="249.93" width="100" height="50" as="geometry" />
        </mxCell>
        <mxCell id="o3Z6A7jvwZWguGTXYTzA-3" value="Entity&lt;br style=&quot;font-size: 14px;&quot;&gt;manager" style="shape=module;align=center;spacingLeft=20;align=center;verticalAlign=top;whiteSpace=wrap;html=1;fontSize=14;" parent="1" vertex="1">
          <mxGeometry x="623" y="331.87" width="100" height="50" as="geometry" />
        </mxCell>
        <mxCell id="NMzGeiKC0gR0xCybBi5c-6" style="rounded=0;orthogonalLoop=1;jettySize=auto;html=1;exitX=0.5;exitY=1;exitDx=0;exitDy=0;endArrow=none;endFill=0;entryX=0;entryY=0.5;entryDx=0;entryDy=0;edgeStyle=orthogonalEdgeStyle;fontSize=14;" parent="1" source="o3Z6A7jvwZWguGTXYTzA-7" target="NMzGeiKC0gR0xCybBi5c-5" edge="1">
          <mxGeometry relative="1" as="geometry">
            <mxPoint x="393" y="634.87" as="targetPoint" />
            <mxPoint x="382.5" y="637.87" as="sourcePoint" />
          </mxGeometry>
        </mxCell>
        <mxCell id="MKqeY2xma5D0B7bhtNGr-7" style="edgeStyle=orthogonalEdgeStyle;rounded=0;orthogonalLoop=1;jettySize=auto;html=1;exitX=1;exitY=0.5;exitDx=0;exitDy=0;entryX=0;entryY=0.5;entryDx=0;entryDy=0;endArrow=none;endFill=0;fontSize=14;" parent="1" source="o3Z6A7jvwZWguGTXYTzA-7" target="MKqeY2xma5D0B7bhtNGr-5" edge="1">
          <mxGeometry relative="1" as="geometry" />
        </mxCell>
        <mxCell id="MKqeY2xma5D0B7bhtNGr-13" style="edgeStyle=orthogonalEdgeStyle;rounded=0;orthogonalLoop=1;jettySize=auto;html=1;exitX=0.5;exitY=0;exitDx=0;exitDy=0;entryX=0;entryY=0.5;entryDx=0;entryDy=0;endArrow=none;endFill=0;fontSize=14;" parent="1" source="o3Z6A7jvwZWguGTXYTzA-7" target="MKqeY2xma5D0B7bhtNGr-11" edge="1">
          <mxGeometry relative="1" as="geometry" />
        </mxCell>
        <mxCell id="o3Z6A7jvwZWguGTXYTzA-7" value="Dashboard manager" style="shape=module;align=center;spacingLeft=20;align=center;verticalAlign=top;whiteSpace=wrap;html=1;fontSize=14;" parent="1" vertex="1">
          <mxGeometry x="82" y="394.87" width="100" height="50" as="geometry" />
        </mxCell>
        <mxCell id="gEFSZrqabxyR4UEorBDO-7" style="edgeStyle=orthogonalEdgeStyle;rounded=0;orthogonalLoop=1;jettySize=auto;html=1;exitX=1;exitY=0.5;exitDx=0;exitDy=0;endArrow=none;endFill=0;fontSize=14;" parent="1" source="o3Z6A7jvwZWguGTXYTzA-9" edge="1">
          <mxGeometry relative="1" as="geometry">
            <mxPoint x="420" y="420" as="targetPoint" />
          </mxGeometry>
        </mxCell>
        <mxCell id="o3Z6A7jvwZWguGTXYTzA-9" value="Tournament&amp;nbsp;&lt;br style=&quot;font-size: 14px;&quot;&gt;manager" style="shape=module;align=center;spacingLeft=20;align=center;verticalAlign=top;whiteSpace=wrap;html=1;fontSize=14;" parent="1" vertex="1">
          <mxGeometry x="275" y="324.87" width="120" height="50" as="geometry" />
        </mxCell>
        <mxCell id="o3Z6A7jvwZWguGTXYTzA-10" value="Battle &lt;br style=&quot;font-size: 14px;&quot;&gt;manager" style="shape=module;align=center;spacingLeft=20;align=center;verticalAlign=top;whiteSpace=wrap;html=1;fontSize=14;" parent="1" vertex="1">
          <mxGeometry x="275" y="395.88" width="120" height="50" as="geometry" />
        </mxCell>
        <mxCell id="gEFSZrqabxyR4UEorBDO-1" value="" style="ellipse;html=1;fontSize=14;" parent="1" vertex="1">
          <mxGeometry x="444" y="421.87" width="7.874" height="7.874" as="geometry" />
        </mxCell>
        <mxCell id="gEFSZrqabxyR4UEorBDO-2" value="" style="endArrow=none;html=1;rounded=0;align=center;verticalAlign=top;endFill=0;labelBackgroundColor=none;endSize=6;exitX=0.098;exitY=0.509;exitDx=0;exitDy=0;exitPerimeter=0;fontSize=14;" parent="1" source="o3Z6A7jvwZWguGTXYTzA-1" target="gEFSZrqabxyR4UEorBDO-1" edge="1">
          <mxGeometry relative="1" as="geometry">
            <mxPoint x="519.3599999999999" y="427.22" as="sourcePoint" />
          </mxGeometry>
        </mxCell>
        <mxCell id="gEFSZrqabxyR4UEorBDO-5" value="" style="endArrow=none;html=1;rounded=0;align=center;verticalAlign=top;endFill=0;labelBackgroundColor=none;endSize=2;exitX=1.003;exitY=0.567;exitDx=0;exitDy=0;exitPerimeter=0;entryX=0.98;entryY=0.389;entryDx=0;entryDy=0;entryPerimeter=0;fontSize=14;" parent="1" source="o3Z6A7jvwZWguGTXYTzA-10" target="NMzGeiKC0gR0xCybBi5c-22" edge="1">
          <mxGeometry relative="1" as="geometry">
            <mxPoint x="424" y="426.87103311258284" as="sourcePoint" />
            <mxPoint x="552" y="427" as="targetPoint" />
          </mxGeometry>
        </mxCell>
        <mxCell id="NMzGeiKC0gR0xCybBi5c-5" value="" style="ellipse;html=1;fontSize=14;" parent="1" vertex="1">
          <mxGeometry x="203.2" y="488.99999999999994" width="7.874" height="7.874" as="geometry" />
        </mxCell>
        <mxCell id="NMzGeiKC0gR0xCybBi5c-11" value="access&lt;br&gt;interface" style="text;html=1;align=center;verticalAlign=middle;resizable=0;points=[];autosize=1;strokeColor=none;fillColor=none;fontSize=14;" parent="1" vertex="1">
          <mxGeometry x="167.14" y="494" width="80" height="50" as="geometry" />
        </mxCell>
        <mxCell id="NMzGeiKC0gR0xCybBi5c-12" value="model &lt;br style=&quot;font-size: 14px;&quot;&gt;interface" style="text;html=1;align=center;verticalAlign=middle;resizable=0;points=[];autosize=1;strokeColor=none;fillColor=none;fontSize=14;" parent="1" vertex="1">
          <mxGeometry x="416.75" y="377.94" width="80" height="50" as="geometry" />
        </mxCell>
        <mxCell id="NMzGeiKC0gR0xCybBi5c-14" value="" style="ellipse;html=1;fontSize=14;" parent="1" vertex="1">
          <mxGeometry x="590" y="352.93" width="7.874" height="7.874" as="geometry" />
        </mxCell>
        <mxCell id="NMzGeiKC0gR0xCybBi5c-17" value="" style="shape=requiredInterface;html=1;fontSize=14;align=center;fillColor=none;points=[];aspect=fixed;resizable=0;verticalAlign=bottom;labelPosition=center;verticalLabelPosition=top;flipH=1;rotation=0;" parent="1" vertex="1">
          <mxGeometry x="586.9962962962964" y="351.86999999999995" width="5" height="10" as="geometry" />
        </mxCell>
        <mxCell id="NMzGeiKC0gR0xCybBi5c-18" style="rounded=0;orthogonalLoop=1;jettySize=auto;html=1;exitX=0.103;exitY=0.497;exitDx=0;exitDy=0;exitPerimeter=0;endArrow=none;endFill=0;entryX=1;entryY=0.5;entryDx=0;entryDy=0;fontSize=14;" parent="1" source="o3Z6A7jvwZWguGTXYTzA-3" target="NMzGeiKC0gR0xCybBi5c-14" edge="1">
          <mxGeometry relative="1" as="geometry">
            <mxPoint x="616.8739999999607" y="356.86699999999996" as="targetPoint" />
            <mxPoint x="654.3999999999999" y="356.82000000000005" as="sourcePoint" />
          </mxGeometry>
        </mxCell>
        <mxCell id="NMzGeiKC0gR0xCybBi5c-19" value="entity manager&lt;br style=&quot;font-size: 14px;&quot;&gt;interface" style="text;html=1;align=center;verticalAlign=middle;resizable=0;points=[];autosize=1;strokeColor=none;fillColor=none;fontSize=14;" parent="1" vertex="1">
          <mxGeometry x="512" y="304.87" width="120" height="50" as="geometry" />
        </mxCell>
        <mxCell id="NMzGeiKC0gR0xCybBi5c-22" value="" style="shape=requiredInterface;html=1;fontSize=14;align=center;fillColor=none;points=[];aspect=fixed;resizable=0;verticalAlign=bottom;labelPosition=center;verticalLabelPosition=top;flipH=1;rotation=0;" parent="1" vertex="1">
          <mxGeometry x="441.99629629629624" y="420.87" width="5" height="10" as="geometry" />
        </mxCell>
        <mxCell id="NMzGeiKC0gR0xCybBi5c-31" value="" style="ellipse;html=1;fontSize=14;" parent="1" vertex="1">
          <mxGeometry x="599.8799999999999" y="269" width="7.874" height="7.874" as="geometry" />
        </mxCell>
        <mxCell id="NMzGeiKC0gR0xCybBi5c-32" value="" style="shape=requiredInterface;html=1;fontSize=14;align=center;fillColor=none;points=[];aspect=fixed;resizable=0;verticalAlign=bottom;labelPosition=center;verticalLabelPosition=top;flipH=1;rotation=0;" parent="1" vertex="1">
          <mxGeometry x="597.8762962962963" y="267.86999999999995" width="5" height="10" as="geometry" />
        </mxCell>
        <mxCell id="NMzGeiKC0gR0xCybBi5c-34" style="rounded=0;orthogonalLoop=1;jettySize=auto;html=1;exitX=0.096;exitY=0.474;exitDx=0;exitDy=0;entryX=1;entryY=0.5;entryDx=0;entryDy=0;endArrow=none;endFill=0;exitPerimeter=0;fontSize=14;" parent="1" source="o3Z6A7jvwZWguGTXYTzA-2" target="NMzGeiKC0gR0xCybBi5c-31" edge="1">
          <mxGeometry relative="1" as="geometry">
            <mxPoint x="757.72" y="243.35999999999996" as="sourcePoint" />
            <mxPoint x="616.8199999999999" y="288" as="targetPoint" />
          </mxGeometry>
        </mxCell>
        <mxCell id="NMzGeiKC0gR0xCybBi5c-35" value="mail manager&lt;br style=&quot;font-size: 14px;&quot;&gt;interface" style="text;html=1;align=center;verticalAlign=middle;resizable=0;points=[];autosize=1;strokeColor=none;fillColor=none;fontSize=14;" parent="1" vertex="1">
          <mxGeometry x="516.9999999999999" y="222.86" width="110" height="50" as="geometry" />
        </mxCell>
        <mxCell id="MKqeY2xma5D0B7bhtNGr-20" style="rounded=0;orthogonalLoop=1;jettySize=auto;html=1;exitX=0.471;exitY=0.043;exitDx=0;exitDy=0;endArrow=none;endFill=0;entryX=1.169;entryY=0.403;entryDx=0;entryDy=0;entryPerimeter=0;exitPerimeter=0;fontSize=14;endSize=0;startSize=0;jumpSize=15;" parent="1" edge="1">
          <mxGeometry relative="1" as="geometry">
            <mxPoint x="420" y="424.9000000000001" as="targetPoint" />
            <mxPoint x="421" y="535.78799" as="sourcePoint" />
          </mxGeometry>
        </mxCell>
        <mxCell id="NMzGeiKC0gR0xCybBi5c-36" value="Automatic evaluation manager" style="shape=module;align=center;spacingLeft=20;align=center;verticalAlign=top;whiteSpace=wrap;html=1;fontSize=14;" parent="1" vertex="1">
          <mxGeometry x="400" y="524.34" width="120" height="66.66" as="geometry" />
        </mxCell>
        <mxCell id="A1Fv1hyo14tyoMTPFSJz-1" value="" style="html=1;rounded=0;fontSize=14;" parent="1" vertex="1">
          <mxGeometry x="43.25" y="415.07000000000005" width="7.874" height="7.874" as="geometry" />
        </mxCell>
        <mxCell id="A1Fv1hyo14tyoMTPFSJz-4" value="" style="html=1;rounded=0;fontSize=14;" parent="1" vertex="1">
          <mxGeometry x="43.25" y="567.87" width="7.874" height="7.874" as="geometry" />
        </mxCell>
        <mxCell id="A1Fv1hyo14tyoMTPFSJz-5" value="" style="html=1;rounded=0;fontSize=14;" parent="1" vertex="1">
          <mxGeometry x="767" y="352.99000000000007" width="7.874" height="7.874" as="geometry" />
        </mxCell>
        <mxCell id="A1Fv1hyo14tyoMTPFSJz-6" value="" style="html=1;rounded=0;fontSize=14;" parent="1" vertex="1">
          <mxGeometry x="766" y="542.8700000000001" width="7.874" height="7.874" as="geometry" />
        </mxCell>
        <mxCell id="4u4P3v0Mj4FdsXaKuPi9-1" value="" style="html=1;rounded=0;fontSize=14;" parent="1" vertex="1">
          <mxGeometry x="766" y="270.99000000000007" width="7.874" height="7.874" as="geometry" />
        </mxCell>
        <mxCell id="4u4P3v0Mj4FdsXaKuPi9-2" value="" style="endArrow=none;html=1;rounded=0;align=center;verticalAlign=top;endFill=0;labelBackgroundColor=none;endSize=6;exitX=1;exitY=0.5;exitDx=0;exitDy=0;entryX=1.017;entryY=0.488;entryDx=0;entryDy=0;entryPerimeter=0;fontSize=14;" parent="1" source="o3Z6A7jvwZWguGTXYTzA-3" target="4u4P3v0Mj4FdsXaKuPi9-3" edge="1">
          <mxGeometry relative="1" as="geometry">
            <mxPoint x="734" y="354.4" as="sourcePoint" />
            <mxPoint x="787" y="355.4" as="targetPoint" />
          </mxGeometry>
        </mxCell>
        <mxCell id="4u4P3v0Mj4FdsXaKuPi9-3" value="" style="shape=requiredInterface;html=1;fontSize=14;align=center;fillColor=none;points=[];aspect=fixed;resizable=0;verticalAlign=bottom;labelPosition=center;verticalLabelPosition=top;flipH=1;rotation=0;" parent="1" vertex="1">
          <mxGeometry x="758.9962962962964" y="351.98999999999995" width="5" height="10" as="geometry" />
        </mxCell>
        <mxCell id="4u4P3v0Mj4FdsXaKuPi9-4" value="" style="shape=requiredInterface;html=1;fontSize=14;align=center;fillColor=none;points=[];aspect=fixed;resizable=0;verticalAlign=bottom;labelPosition=center;verticalLabelPosition=top;flipH=1;rotation=0;" parent="1" vertex="1">
          <mxGeometry x="759.9962962962964" y="269.85999999999996" width="5" height="10" as="geometry" />
        </mxCell>
        <mxCell id="4u4P3v0Mj4FdsXaKuPi9-5" value="" style="endArrow=none;html=1;rounded=0;align=center;verticalAlign=top;endFill=0;labelBackgroundColor=none;endSize=6;exitX=1;exitY=0.5;exitDx=0;exitDy=0;entryX=0.986;entryY=0.505;entryDx=0;entryDy=0;entryPerimeter=0;fontSize=14;" parent="1" source="o3Z6A7jvwZWguGTXYTzA-2" target="4u4P3v0Mj4FdsXaKuPi9-4" edge="1">
          <mxGeometry relative="1" as="geometry">
            <mxPoint x="732" y="366.87" as="sourcePoint" />
            <mxPoint x="781" y="364.87" as="targetPoint" />
          </mxGeometry>
        </mxCell>
        <mxCell id="dT7WxG1rzxciY0QNFn4m-1" value="mail" style="text;html=1;align=center;verticalAlign=middle;resizable=0;points=[];autosize=1;strokeColor=none;fillColor=none;labelBackgroundColor=default;fontSize=14;" parent="1" vertex="1">
          <mxGeometry x="745.94" y="237.86" width="50" height="30" as="geometry" />
        </mxCell>
        <mxCell id="dT7WxG1rzxciY0QNFn4m-2" value="DBMS" style="text;html=1;align=center;verticalAlign=middle;resizable=0;points=[];autosize=1;strokeColor=none;fillColor=none;labelBackgroundColor=default;fontSize=14;" parent="1" vertex="1">
          <mxGeometry x="741.5" y="324.87" width="60" height="30" as="geometry" />
        </mxCell>
        <mxCell id="acpNCpp4_QS4X7OmRHOk-1" value="GitHub" style="text;html=1;align=center;verticalAlign=middle;resizable=0;points=[];autosize=1;strokeColor=none;fillColor=none;labelBackgroundColor=default;fontSize=14;" parent="1" vertex="1">
          <mxGeometry x="732" y="509.74" width="70" height="30" as="geometry" />
        </mxCell>
        <mxCell id="acpNCpp4_QS4X7OmRHOk-2" value="" style="html=1;rounded=0;fontSize=14;" parent="1" vertex="1">
          <mxGeometry x="767" y="571.87" width="7.874" height="7.874" as="geometry" />
        </mxCell>
        <mxCell id="acpNCpp4_QS4X7OmRHOk-3" value="static analysis &lt;br style=&quot;font-size: 14px;&quot;&gt;tool" style="text;html=1;align=center;verticalAlign=middle;resizable=0;points=[];autosize=1;strokeColor=none;fillColor=none;labelBackgroundColor=default;fontSize=14;" parent="1" vertex="1">
          <mxGeometry x="708" y="588" width="110" height="50" as="geometry" />
        </mxCell>
        <mxCell id="acpNCpp4_QS4X7OmRHOk-4" value="access" style="text;html=1;align=center;verticalAlign=middle;resizable=0;points=[];autosize=1;strokeColor=none;fillColor=none;labelBackgroundColor=default;fontSize=14;" parent="1" vertex="1">
          <mxGeometry x="15.5" y="531.87" width="70" height="30" as="geometry" />
        </mxCell>
        <mxCell id="acpNCpp4_QS4X7OmRHOk-5" value="dashboard" style="text;html=1;align=center;verticalAlign=middle;resizable=0;points=[];autosize=1;strokeColor=none;fillColor=none;labelBackgroundColor=default;fontSize=14;" parent="1" vertex="1">
          <mxGeometry x="5.4999999999999964" y="374.87" width="90" height="30" as="geometry" />
        </mxCell>
        <mxCell id="NMzGeiKC0gR0xCybBi5c-9" value="" style="shape=requiredInterface;html=1;fontSize=14;align=center;fillColor=none;points=[];aspect=fixed;resizable=0;verticalAlign=bottom;labelPosition=center;verticalLabelPosition=top;flipH=1;rotation=-180;" parent="1" vertex="1">
          <mxGeometry x="208.07" y="487.86999999999995" width="5" height="10" as="geometry" />
        </mxCell>
        <mxCell id="NMzGeiKC0gR0xCybBi5c-10" style="rounded=0;orthogonalLoop=1;jettySize=auto;html=1;exitX=0.087;exitY=0.509;exitDx=0;exitDy=0;entryX=1.055;entryY=0.473;entryDx=0;entryDy=0;entryPerimeter=0;endArrow=none;endFill=0;exitPerimeter=0;fontSize=14;" parent="1" source="wkrjl5S5RHV7B64wUPDd-1" target="NMzGeiKC0gR0xCybBi5c-9" edge="1">
          <mxGeometry relative="1" as="geometry">
            <mxPoint x="340.15000000000003" y="489.44999999999993" as="sourcePoint" />
          </mxGeometry>
        </mxCell>
        <mxCell id="MKqeY2xma5D0B7bhtNGr-4" style="edgeStyle=orthogonalEdgeStyle;rounded=0;orthogonalLoop=1;jettySize=auto;html=1;exitX=1;exitY=0.5;exitDx=0;exitDy=0;endArrow=none;endFill=0;fontSize=14;" parent="1" source="wkrjl5S5RHV7B64wUPDd-1" edge="1">
          <mxGeometry relative="1" as="geometry">
            <mxPoint x="420" y="420" as="targetPoint" />
            <mxPoint x="424" y="491.87" as="sourcePoint" />
          </mxGeometry>
        </mxCell>
        <mxCell id="wkrjl5S5RHV7B64wUPDd-1" value="Users access&lt;br style=&quot;font-size: 14px;&quot;&gt;manager" style="shape=module;align=center;spacingLeft=20;align=center;verticalAlign=top;whiteSpace=wrap;html=1;fontSize=14;" parent="1" vertex="1">
          <mxGeometry x="275" y="467.87" width="120" height="50" as="geometry" />
        </mxCell>
        <mxCell id="MKqeY2xma5D0B7bhtNGr-5" value="" style="ellipse;html=1;fontSize=14;" parent="1" vertex="1">
          <mxGeometry x="222" y="415.99999999999994" width="7.874" height="7.874" as="geometry" />
        </mxCell>
        <mxCell id="MKqeY2xma5D0B7bhtNGr-6" value="" style="shape=requiredInterface;html=1;fontSize=14;align=center;fillColor=none;points=[];aspect=fixed;resizable=0;verticalAlign=bottom;labelPosition=center;verticalLabelPosition=top;flipH=1;rotation=-180;" parent="1" vertex="1">
          <mxGeometry x="226.87" y="414.86999999999995" width="5" height="10" as="geometry" />
        </mxCell>
        <mxCell id="MKqeY2xma5D0B7bhtNGr-8" style="rounded=0;orthogonalLoop=1;jettySize=auto;html=1;exitX=0.08;exitY=0.494;exitDx=0;exitDy=0;exitPerimeter=0;endArrow=none;endFill=0;fontSize=14;" parent="1" source="o3Z6A7jvwZWguGTXYTzA-10" edge="1">
          <mxGeometry relative="1" as="geometry">
            <mxPoint x="232" y="420" as="targetPoint" />
          </mxGeometry>
        </mxCell>
        <mxCell id="MKqeY2xma5D0B7bhtNGr-9" value="battle&lt;br style=&quot;font-size: 14px;&quot;&gt;interface" style="text;html=1;align=center;verticalAlign=middle;resizable=0;points=[];autosize=1;strokeColor=none;fillColor=none;fontSize=14;" parent="1" vertex="1">
          <mxGeometry x="189.37" y="423.81" width="80" height="50" as="geometry" />
        </mxCell>
        <mxCell id="MKqeY2xma5D0B7bhtNGr-10" value="tournament&lt;br style=&quot;font-size: 14px;&quot;&gt;interface" style="text;html=1;align=center;verticalAlign=middle;resizable=0;points=[];autosize=1;strokeColor=none;fillColor=none;fontSize=14;" parent="1" vertex="1">
          <mxGeometry x="184.37" y="294.93" width="90" height="50" as="geometry" />
        </mxCell>
        <mxCell id="MKqeY2xma5D0B7bhtNGr-11" value="" style="ellipse;html=1;fontSize=14;" parent="1" vertex="1">
          <mxGeometry x="217" y="345.99999999999994" width="7.874" height="7.874" as="geometry" />
        </mxCell>
        <mxCell id="MKqeY2xma5D0B7bhtNGr-12" value="" style="shape=requiredInterface;html=1;fontSize=14;align=center;fillColor=none;points=[];aspect=fixed;resizable=0;verticalAlign=bottom;labelPosition=center;verticalLabelPosition=top;flipH=1;rotation=-180;" parent="1" vertex="1">
          <mxGeometry x="221.87" y="344.86999999999995" width="5" height="10" as="geometry" />
        </mxCell>
        <mxCell id="MKqeY2xma5D0B7bhtNGr-14" style="edgeStyle=orthogonalEdgeStyle;rounded=0;orthogonalLoop=1;jettySize=auto;html=1;entryX=0.975;entryY=0.524;entryDx=0;entryDy=0;entryPerimeter=0;endArrow=none;endFill=0;exitX=0.078;exitY=0.495;exitDx=0;exitDy=0;exitPerimeter=0;fontSize=14;" parent="1" source="o3Z6A7jvwZWguGTXYTzA-9" target="MKqeY2xma5D0B7bhtNGr-12" edge="1">
          <mxGeometry relative="1" as="geometry" />
        </mxCell>
        <mxCell id="MKqeY2xma5D0B7bhtNGr-16" value="" style="shape=requiredInterface;html=1;fontSize=14;align=center;fillColor=none;points=[];aspect=fixed;resizable=0;verticalAlign=bottom;labelPosition=center;verticalLabelPosition=top;flipH=1;rotation=-180;" parent="1" vertex="1">
          <mxGeometry x="51.99629629629635" y="413.86999999999995" width="5" height="10" as="geometry" />
        </mxCell>
        <mxCell id="MKqeY2xma5D0B7bhtNGr-17" value="" style="shape=requiredInterface;html=1;fontSize=14;align=center;fillColor=none;points=[];aspect=fixed;resizable=0;verticalAlign=bottom;labelPosition=center;verticalLabelPosition=top;flipH=1;rotation=-180;" parent="1" vertex="1">
          <mxGeometry x="51.99629629629635" y="566.8699999999999" width="5" height="10" as="geometry" />
        </mxCell>
        <mxCell id="MKqeY2xma5D0B7bhtNGr-18" style="rounded=0;orthogonalLoop=1;jettySize=auto;html=1;exitX=0.101;exitY=0.488;exitDx=0;exitDy=0;exitPerimeter=0;entryX=0.946;entryY=0.476;entryDx=0;entryDy=0;entryPerimeter=0;endArrow=none;endFill=0;fontSize=14;" parent="1" source="o3Z6A7jvwZWguGTXYTzA-7" target="MKqeY2xma5D0B7bhtNGr-16" edge="1">
          <mxGeometry relative="1" as="geometry" />
        </mxCell>
        <mxCell id="MKqeY2xma5D0B7bhtNGr-19" style="edgeStyle=orthogonalEdgeStyle;rounded=0;orthogonalLoop=1;jettySize=auto;html=1;exitX=0.5;exitY=1;exitDx=0;exitDy=0;entryX=1.099;entryY=0.502;entryDx=0;entryDy=0;entryPerimeter=0;endArrow=none;endFill=0;fontSize=14;" parent="1" source="wkrjl5S5RHV7B64wUPDd-1" target="MKqeY2xma5D0B7bhtNGr-17" edge="1">
          <mxGeometry relative="1" as="geometry" />
        </mxCell>
        <mxCell id="MKqeY2xma5D0B7bhtNGr-21" style="edgeStyle=orthogonalEdgeStyle;rounded=0;orthogonalLoop=1;jettySize=auto;html=1;exitX=0.75;exitY=0;exitDx=0;exitDy=0;entryX=0.957;entryY=0.482;entryDx=0;entryDy=0;entryPerimeter=0;endArrow=none;endFill=0;fontSize=14;" parent="1" source="o3Z6A7jvwZWguGTXYTzA-1" target="NMzGeiKC0gR0xCybBi5c-17" edge="1">
          <mxGeometry relative="1" as="geometry" />
        </mxCell>
        <mxCell id="MKqeY2xma5D0B7bhtNGr-27" value="" style="shape=requiredInterface;html=1;fontSize=14;align=center;fillColor=none;points=[];aspect=fixed;resizable=0;verticalAlign=bottom;labelPosition=center;verticalLabelPosition=top;flipH=1;rotation=0;" parent="1" vertex="1">
          <mxGeometry x="758.4962962962964" y="541.74" width="5" height="10" as="geometry" />
        </mxCell>
        <mxCell id="MKqeY2xma5D0B7bhtNGr-28" value="" style="shape=requiredInterface;html=1;fontSize=14;align=center;fillColor=none;points=[];aspect=fixed;resizable=0;verticalAlign=bottom;labelPosition=center;verticalLabelPosition=top;flipH=1;rotation=0;" parent="1" vertex="1">
          <mxGeometry x="760.4962962962964" y="570.87" width="5" height="10" as="geometry" />
        </mxCell>
        <mxCell id="MKqeY2xma5D0B7bhtNGr-29" style="rounded=0;orthogonalLoop=1;jettySize=auto;html=1;exitX=1.002;exitY=0.325;exitDx=0;exitDy=0;entryX=0.873;entryY=0.5;entryDx=0;entryDy=0;entryPerimeter=0;endArrow=none;endFill=0;fontSize=14;exitPerimeter=0;" parent="1" source="NMzGeiKC0gR0xCybBi5c-36" target="MKqeY2xma5D0B7bhtNGr-27" edge="1">
          <mxGeometry relative="1" as="geometry" />
        </mxCell>
        <mxCell id="MKqeY2xma5D0B7bhtNGr-30" style="rounded=0;orthogonalLoop=1;jettySize=auto;html=1;exitX=1;exitY=0.75;exitDx=0;exitDy=0;entryX=0.946;entryY=0.488;entryDx=0;entryDy=0;entryPerimeter=0;endArrow=none;endFill=0;fontSize=14;" parent="1" source="NMzGeiKC0gR0xCybBi5c-36" target="MKqeY2xma5D0B7bhtNGr-28" edge="1">
          <mxGeometry relative="1" as="geometry" />
        </mxCell>
      </root>
    </mxGraphModel>
  </diagram>
  <diagram id="FIEonkmwzywgqzquNpOM" name="Dashboard Manager">
    <mxGraphModel dx="1742" dy="351" grid="1" gridSize="10" guides="1" tooltips="1" connect="1" arrows="1" fold="1" page="1" pageScale="1" pageWidth="827" pageHeight="1169" math="0" shadow="0">
      <root>
        <mxCell id="0" />
        <mxCell id="1" parent="0" />
        <mxCell id="3l78A5HP8zGYEjkeEPSU-1" value="DashBoard Manager" style="fontStyle=1;align=center;verticalAlign=top;childLayout=stackLayout;horizontal=1;horizontalStack=0;resizeParent=1;resizeParentMax=0;resizeLast=0;marginBottom=0;container=0;fontSize=15;" parent="1" vertex="1">
          <mxGeometry x="130" y="290" width="480" height="268" as="geometry" />
        </mxCell>
        <mxCell id="3l78A5HP8zGYEjkeEPSU-3" value="" style="shape=module;jettyWidth=10;jettyHeight=4;container=0;fontSize=14;" parent="1" vertex="1">
          <mxGeometry x="569" y="300" width="27" height="20" as="geometry">
            <mxPoint x="-36" y="9" as="offset" />
          </mxGeometry>
        </mxCell>
        <mxCell id="3l78A5HP8zGYEjkeEPSU-10" style="edgeStyle=orthogonalEdgeStyle;rounded=0;orthogonalLoop=1;jettySize=auto;html=1;exitX=0.5;exitY=0;exitDx=0;exitDy=0;endArrow=none;endFill=0;fontSize=14;" parent="1" source="3l78A5HP8zGYEjkeEPSU-11" edge="1">
          <mxGeometry relative="1" as="geometry">
            <mxPoint x="220" y="350" as="targetPoint" />
            <Array as="points">
              <mxPoint x="190" y="350" />
            </Array>
          </mxGeometry>
        </mxCell>
        <mxCell id="3l78A5HP8zGYEjkeEPSU-11" value="Input Manager&lt;br&gt;" style="shape=module;align=center;spacingLeft=20;align=center;verticalAlign=top;whiteSpace=wrap;html=1;fontSize=14;" parent="1" vertex="1">
          <mxGeometry x="140" y="394.01" width="100" height="50" as="geometry" />
        </mxCell>
        <mxCell id="3l78A5HP8zGYEjkeEPSU-12" style="edgeStyle=orthogonalEdgeStyle;rounded=0;orthogonalLoop=1;jettySize=auto;html=1;exitX=1;exitY=0.5;exitDx=0;exitDy=0;endArrow=none;endFill=0;fontSize=14;entryX=1.267;entryY=0.5;entryDx=0;entryDy=0;entryPerimeter=0;" parent="1" source="3l78A5HP8zGYEjkeEPSU-13" target="3l78A5HP8zGYEjkeEPSU-112" edge="1">
          <mxGeometry relative="1" as="geometry">
            <mxPoint x="630" y="350" as="targetPoint" />
          </mxGeometry>
        </mxCell>
        <mxCell id="3l78A5HP8zGYEjkeEPSU-13" value="Student Action&amp;nbsp;Manager" style="shape=module;align=center;spacingLeft=20;align=center;verticalAlign=top;whiteSpace=wrap;html=1;fontSize=14;" parent="1" vertex="1">
          <mxGeometry x="275" y="324.94" width="120" height="50" as="geometry" />
        </mxCell>
        <mxCell id="3l78A5HP8zGYEjkeEPSU-32" value="" style="html=1;rounded=0;fontSize=14;" parent="1" vertex="1">
          <mxGeometry x="48.25" y="415.07000000000005" width="7.874" height="7.874" as="geometry" />
        </mxCell>
        <mxCell id="3l78A5HP8zGYEjkeEPSU-47" style="rounded=0;orthogonalLoop=1;jettySize=auto;html=1;exitX=0.087;exitY=0.509;exitDx=0;exitDy=0;entryX=1.055;entryY=0.473;entryDx=0;entryDy=0;entryPerimeter=0;endArrow=none;endFill=0;exitPerimeter=0;fontSize=14;" parent="1" source="3l78A5HP8zGYEjkeEPSU-49" edge="1">
          <mxGeometry relative="1" as="geometry">
            <mxPoint x="340.15000000000003" y="489.44999999999993" as="sourcePoint" />
            <mxPoint x="230.1450000000001" y="499.1999999999998" as="targetPoint" />
          </mxGeometry>
        </mxCell>
        <mxCell id="3l78A5HP8zGYEjkeEPSU-48" style="edgeStyle=orthogonalEdgeStyle;rounded=0;orthogonalLoop=1;jettySize=auto;html=1;exitX=1;exitY=0.5;exitDx=0;exitDy=0;endArrow=none;endFill=0;fontSize=14;" parent="1" source="3l78A5HP8zGYEjkeEPSU-49" edge="1">
          <mxGeometry relative="1" as="geometry">
            <mxPoint x="640" y="500" as="targetPoint" />
            <mxPoint x="470" y="499.73499999999996" as="sourcePoint" />
            <Array as="points">
              <mxPoint x="395" y="500" />
              <mxPoint x="500" y="500" />
            </Array>
          </mxGeometry>
        </mxCell>
        <mxCell id="3l78A5HP8zGYEjkeEPSU-49" value="Educator Action Manager" style="shape=module;align=center;spacingLeft=20;align=center;verticalAlign=top;whiteSpace=wrap;html=1;fontSize=14;" parent="1" vertex="1">
          <mxGeometry x="275" y="467.87" width="120" height="62.13" as="geometry" />
        </mxCell>
        <mxCell id="3l78A5HP8zGYEjkeEPSU-57" style="edgeStyle=orthogonalEdgeStyle;rounded=0;orthogonalLoop=1;jettySize=auto;html=1;entryX=0.975;entryY=0.524;entryDx=0;entryDy=0;entryPerimeter=0;endArrow=none;endFill=0;exitX=0.078;exitY=0.495;exitDx=0;exitDy=0;exitPerimeter=0;fontSize=14;" parent="1" edge="1">
          <mxGeometry relative="1" as="geometry">
            <mxPoint x="284.48" y="349.86000000000007" as="sourcePoint" />
            <mxPoint x="231.865" y="349.7999999999999" as="targetPoint" />
            <Array as="points">
              <mxPoint x="258" y="350.16" />
              <mxPoint x="258" y="350.16" />
            </Array>
          </mxGeometry>
        </mxCell>
        <mxCell id="3l78A5HP8zGYEjkeEPSU-60" style="rounded=0;orthogonalLoop=1;jettySize=auto;html=1;exitX=0.101;exitY=0.488;exitDx=0;exitDy=0;exitPerimeter=0;entryX=0.946;entryY=0.476;entryDx=0;entryDy=0;entryPerimeter=0;endArrow=none;endFill=0;fontSize=14;" parent="1" source="3l78A5HP8zGYEjkeEPSU-11" edge="1">
          <mxGeometry relative="1" as="geometry">
            <mxPoint x="56.72629629629637" y="419.1100000000001" as="targetPoint" />
          </mxGeometry>
        </mxCell>
        <mxCell id="3l78A5HP8zGYEjkeEPSU-86" value="" style="endArrow=none;html=1;rounded=0;entryX=0.5;entryY=1;entryDx=0;entryDy=0;exitX=0;exitY=0.5;exitDx=0;exitDy=0;" parent="1" edge="1">
          <mxGeometry width="50" height="50" relative="1" as="geometry">
            <mxPoint x="218.99999999999886" y="498.9369999999999" as="sourcePoint" />
            <mxPoint x="190" y="444.00999999999976" as="targetPoint" />
            <Array as="points">
              <mxPoint x="190" y="499" />
            </Array>
          </mxGeometry>
        </mxCell>
        <mxCell id="3l78A5HP8zGYEjkeEPSU-96" value="" style="group;rotation=-90;movable=1;resizable=1;rotatable=1;deletable=1;editable=1;locked=0;connectable=1;" parent="1" vertex="1" connectable="0">
          <mxGeometry x="221.995" y="494.00499999999994" width="9.870000000000005" height="10" as="geometry" />
        </mxCell>
        <mxCell id="3l78A5HP8zGYEjkeEPSU-97" value="" style="ellipse;html=1;fontSize=14;direction=east;movable=1;resizable=1;rotatable=1;deletable=1;editable=1;locked=0;connectable=1;rotation=-360;" parent="3l78A5HP8zGYEjkeEPSU-96" vertex="1">
          <mxGeometry y="1" width="7.874" height="7.874" as="geometry" />
        </mxCell>
        <mxCell id="3l78A5HP8zGYEjkeEPSU-98" value="" style="shape=requiredInterface;html=1;fontSize=14;align=center;fillColor=none;points=[];aspect=fixed;resizable=1;verticalAlign=bottom;labelPosition=center;verticalLabelPosition=top;flipH=1;rotation=-540;direction=west;movable=1;rotatable=1;deletable=1;editable=1;locked=0;connectable=1;" parent="3l78A5HP8zGYEjkeEPSU-96" vertex="1">
          <mxGeometry x="-2" width="5" height="10" as="geometry" />
        </mxCell>
        <mxCell id="3l78A5HP8zGYEjkeEPSU-105" value="" style="group;rotation=-90;movable=1;resizable=1;rotatable=1;deletable=1;editable=1;locked=0;connectable=1;" parent="1" vertex="1" connectable="0">
          <mxGeometry x="223.195" y="345.005" width="9.870000000000005" height="10" as="geometry" />
        </mxCell>
        <mxCell id="3l78A5HP8zGYEjkeEPSU-106" value="" style="ellipse;html=1;fontSize=14;direction=east;movable=1;resizable=1;rotatable=1;deletable=1;editable=1;locked=0;connectable=1;rotation=-360;" parent="3l78A5HP8zGYEjkeEPSU-105" vertex="1">
          <mxGeometry y="1" width="7.874" height="7.874" as="geometry" />
        </mxCell>
        <mxCell id="3l78A5HP8zGYEjkeEPSU-107" value="" style="shape=requiredInterface;html=1;fontSize=14;align=center;fillColor=none;points=[];aspect=fixed;resizable=1;verticalAlign=bottom;labelPosition=center;verticalLabelPosition=top;flipH=1;rotation=-540;direction=west;movable=1;rotatable=1;deletable=1;editable=1;locked=0;connectable=1;" parent="3l78A5HP8zGYEjkeEPSU-105" vertex="1">
          <mxGeometry x="-2" width="5" height="10" as="geometry" />
        </mxCell>
        <mxCell id="3l78A5HP8zGYEjkeEPSU-111" value="" style="endArrow=none;html=1;rounded=0;entryX=0.25;entryY=1;entryDx=0;entryDy=0;" parent="1" target="3l78A5HP8zGYEjkeEPSU-11" edge="1">
          <mxGeometry width="50" height="50" relative="1" as="geometry">
            <mxPoint x="165" y="590" as="sourcePoint" />
            <mxPoint x="440" y="530" as="targetPoint" />
          </mxGeometry>
        </mxCell>
        <mxCell id="3l78A5HP8zGYEjkeEPSU-112" value="" style="shape=requiredInterface;html=1;fontSize=14;align=center;fillColor=none;points=[];aspect=fixed;resizable=1;verticalAlign=bottom;labelPosition=center;verticalLabelPosition=top;flipH=1;rotation=-180;direction=west;movable=1;rotatable=1;deletable=1;editable=1;locked=0;connectable=1;container=0;" parent="1" vertex="1">
          <mxGeometry x="641" y="345" width="5" height="10" as="geometry" />
        </mxCell>
        <mxCell id="3l78A5HP8zGYEjkeEPSU-113" value="" style="shape=requiredInterface;html=1;fontSize=14;align=center;fillColor=none;points=[];aspect=fixed;resizable=1;verticalAlign=bottom;labelPosition=center;verticalLabelPosition=top;flipH=1;rotation=-180;direction=west;movable=1;rotatable=1;deletable=1;editable=1;locked=0;connectable=1;container=0;" parent="1" vertex="1">
          <mxGeometry x="641" y="495" width="5" height="10" as="geometry" />
        </mxCell>
        <mxCell id="3l78A5HP8zGYEjkeEPSU-114" value="" style="html=1;rounded=0;fontSize=14;" parent="1" vertex="1">
          <mxGeometry x="644" y="346" width="7.874" height="7.874" as="geometry" />
        </mxCell>
        <mxCell id="3l78A5HP8zGYEjkeEPSU-115" value="" style="html=1;rounded=0;fontSize=14;" parent="1" vertex="1">
          <mxGeometry x="645" y="496" width="7.874" height="7.874" as="geometry" />
        </mxCell>
        <mxCell id="3l78A5HP8zGYEjkeEPSU-116" value="" style="group" parent="1" vertex="1" connectable="0">
          <mxGeometry x="164.44" y="585" width="130.37770370370367" height="10" as="geometry" />
        </mxCell>
        <mxCell id="3l78A5HP8zGYEjkeEPSU-108" value="" style="html=1;rounded=0;fontSize=14;" parent="3l78A5HP8zGYEjkeEPSU-116" vertex="1">
          <mxGeometry x="122.50370370370365" y="1.1300000000001091" width="7.874" height="7.874" as="geometry" />
        </mxCell>
        <mxCell id="3l78A5HP8zGYEjkeEPSU-109" value="" style="shape=requiredInterface;html=1;fontSize=14;align=center;fillColor=none;points=[];aspect=fixed;resizable=0;verticalAlign=bottom;labelPosition=center;verticalLabelPosition=top;flipH=1;rotation=0;" parent="3l78A5HP8zGYEjkeEPSU-116" vertex="1">
          <mxGeometry x="120" width="5" height="10" as="geometry" />
        </mxCell>
        <mxCell id="3l78A5HP8zGYEjkeEPSU-110" style="rounded=0;orthogonalLoop=1;jettySize=auto;html=1;entryX=0.873;entryY=0.5;entryDx=0;entryDy=0;entryPerimeter=0;endArrow=none;endFill=0;fontSize=14;" parent="3l78A5HP8zGYEjkeEPSU-116" target="3l78A5HP8zGYEjkeEPSU-109" edge="1">
          <mxGeometry relative="1" as="geometry">
            <mxPoint y="5" as="sourcePoint" />
          </mxGeometry>
        </mxCell>
        <mxCell id="3l78A5HP8zGYEjkeEPSU-117" value="" style="group" parent="1" vertex="1" connectable="0">
          <mxGeometry x="397" y="516.74" width="252.63" height="10" as="geometry" />
        </mxCell>
        <mxCell id="3l78A5HP8zGYEjkeEPSU-35" value="" style="html=1;rounded=0;fontSize=14;" parent="3l78A5HP8zGYEjkeEPSU-117" vertex="1">
          <mxGeometry x="244.66149963546636" y="1.1300000000001091" width="7.968500364533677" height="7.874" as="geometry" />
        </mxCell>
        <mxCell id="3l78A5HP8zGYEjkeEPSU-63" value="" style="shape=requiredInterface;html=1;fontSize=14;align=center;fillColor=none;points=[];aspect=fixed;resizable=0;verticalAlign=bottom;labelPosition=center;verticalLabelPosition=top;flipH=1;rotation=0;" parent="3l78A5HP8zGYEjkeEPSU-117" vertex="1">
          <mxGeometry x="241.11574598545613" width="5" height="10" as="geometry" />
        </mxCell>
        <mxCell id="3l78A5HP8zGYEjkeEPSU-65" style="rounded=0;orthogonalLoop=1;jettySize=auto;html=1;exitX=1.002;exitY=0.325;exitDx=0;exitDy=0;entryX=0.873;entryY=0.5;entryDx=0;entryDy=0;entryPerimeter=0;endArrow=none;endFill=0;fontSize=14;exitPerimeter=0;" parent="3l78A5HP8zGYEjkeEPSU-117" target="3l78A5HP8zGYEjkeEPSU-63" edge="1">
          <mxGeometry relative="1" as="geometry">
            <mxPoint y="4.264499999999998" as="sourcePoint" />
          </mxGeometry>
        </mxCell>
        <mxCell id="3l78A5HP8zGYEjkeEPSU-118" value="" style="html=1;rounded=0;fontSize=14;" parent="1" vertex="1">
          <mxGeometry x="176.50370370370365" y="51" width="7.874" height="7.874" as="geometry" />
        </mxCell>
        <mxCell id="3l78A5HP8zGYEjkeEPSU-119" value="" style="shape=requiredInterface;html=1;fontSize=14;align=center;fillColor=none;points=[];aspect=fixed;resizable=0;verticalAlign=bottom;labelPosition=center;verticalLabelPosition=top;flipH=1;rotation=0;" parent="1" vertex="1">
          <mxGeometry x="170" y="50" width="5" height="10" as="geometry" />
        </mxCell>
        <mxCell id="3l78A5HP8zGYEjkeEPSU-120" style="rounded=0;orthogonalLoop=1;jettySize=auto;html=1;exitX=1;exitY=0.75;exitDx=0;exitDy=0;entryX=0.946;entryY=0.488;entryDx=0;entryDy=0;entryPerimeter=0;endArrow=none;endFill=0;fontSize=14;" parent="1" target="3l78A5HP8zGYEjkeEPSU-119" edge="1">
          <mxGeometry relative="1" as="geometry">
            <mxPoint x="-70.49629629629635" y="53.46500000000003" as="sourcePoint" />
          </mxGeometry>
        </mxCell>
        <mxCell id="0WSFYrrDO7028qgOs3ST-1" value="&lt;font style=&quot;font-size: 14px;&quot;&gt;WebApp&lt;/font&gt;" style="text;html=1;align=center;verticalAlign=middle;resizable=0;points=[];autosize=1;strokeColor=none;fillColor=none;" vertex="1" parent="1">
          <mxGeometry x="-35" y="404.01" width="80" height="30" as="geometry" />
        </mxCell>
        <mxCell id="0WSFYrrDO7028qgOs3ST-3" value="&lt;font style=&quot;font-size: 14px;&quot;&gt;Battle Manager&lt;/font&gt;" style="text;html=1;align=center;verticalAlign=middle;resizable=0;points=[];autosize=1;strokeColor=none;fillColor=none;" vertex="1" parent="1">
          <mxGeometry x="660" y="335" width="120" height="30" as="geometry" />
        </mxCell>
        <mxCell id="0WSFYrrDO7028qgOs3ST-4" value="&lt;font style=&quot;font-size: 14px;&quot;&gt;Battle Manager&lt;/font&gt;" style="text;html=1;align=center;verticalAlign=middle;resizable=0;points=[];autosize=1;strokeColor=none;fillColor=none;" vertex="1" parent="1">
          <mxGeometry x="660" y="483.93" width="120" height="30" as="geometry" />
        </mxCell>
        <mxCell id="0WSFYrrDO7028qgOs3ST-5" value="&lt;font style=&quot;font-size: 14px;&quot;&gt;Tournament Manager&lt;/font&gt;" style="text;html=1;align=center;verticalAlign=middle;resizable=0;points=[];autosize=1;strokeColor=none;fillColor=none;" vertex="1" parent="1">
          <mxGeometry x="643.87" y="506.74" width="160" height="30" as="geometry" />
        </mxCell>
        <mxCell id="0WSFYrrDO7028qgOs3ST-6" value="&lt;font style=&quot;font-size: 14px;&quot;&gt;User Manager&lt;/font&gt;" style="text;html=1;align=center;verticalAlign=middle;resizable=0;points=[];autosize=1;strokeColor=none;fillColor=none;" vertex="1" parent="1">
          <mxGeometry x="315" y="575" width="110" height="30" as="geometry" />
        </mxCell>
        <mxCell id="_byiZ9CnXPmdQuZIZelo-1" value="" style="group" vertex="1" connectable="0" parent="1">
          <mxGeometry x="395" y="360" width="252.63" height="10" as="geometry" />
        </mxCell>
        <mxCell id="_byiZ9CnXPmdQuZIZelo-2" value="" style="html=1;rounded=0;fontSize=14;" vertex="1" parent="_byiZ9CnXPmdQuZIZelo-1">
          <mxGeometry x="244.66149963546636" y="1.1300000000001091" width="7.968500364533677" height="7.874" as="geometry" />
        </mxCell>
        <mxCell id="_byiZ9CnXPmdQuZIZelo-3" value="" style="shape=requiredInterface;html=1;fontSize=14;align=center;fillColor=none;points=[];aspect=fixed;resizable=0;verticalAlign=bottom;labelPosition=center;verticalLabelPosition=top;flipH=1;rotation=0;" vertex="1" parent="_byiZ9CnXPmdQuZIZelo-1">
          <mxGeometry x="241.11574598545613" width="5" height="10" as="geometry" />
        </mxCell>
        <mxCell id="_byiZ9CnXPmdQuZIZelo-4" style="rounded=0;orthogonalLoop=1;jettySize=auto;html=1;exitX=1.002;exitY=0.325;exitDx=0;exitDy=0;entryX=0.873;entryY=0.5;entryDx=0;entryDy=0;entryPerimeter=0;endArrow=none;endFill=0;fontSize=14;exitPerimeter=0;" edge="1" parent="_byiZ9CnXPmdQuZIZelo-1" target="_byiZ9CnXPmdQuZIZelo-3">
          <mxGeometry relative="1" as="geometry">
            <mxPoint y="4.264499999999998" as="sourcePoint" />
          </mxGeometry>
        </mxCell>
        <mxCell id="_byiZ9CnXPmdQuZIZelo-5" value="&lt;font style=&quot;font-size: 14px;&quot;&gt;Tournament Manager&lt;/font&gt;" style="text;html=1;align=center;verticalAlign=middle;resizable=0;points=[];autosize=1;strokeColor=none;fillColor=none;" vertex="1" parent="1">
          <mxGeometry x="645" y="350" width="160" height="30" as="geometry" />
        </mxCell>
        <mxCell id="y9AWcN6c3iYSvr69kqb8-1" style="edgeStyle=orthogonalEdgeStyle;rounded=0;orthogonalLoop=1;jettySize=auto;html=1;exitX=1;exitY=0.5;exitDx=0;exitDy=0;endArrow=none;endFill=0;fontSize=14;" edge="1" parent="1">
          <mxGeometry relative="1" as="geometry">
            <mxPoint x="641" y="482" as="targetPoint" />
            <mxPoint x="396" y="481" as="sourcePoint" />
            <Array as="points">
              <mxPoint x="396" y="482" />
              <mxPoint x="501" y="482" />
            </Array>
          </mxGeometry>
        </mxCell>
        <mxCell id="y9AWcN6c3iYSvr69kqb8-2" value="" style="shape=requiredInterface;html=1;fontSize=14;align=center;fillColor=none;points=[];aspect=fixed;resizable=1;verticalAlign=bottom;labelPosition=center;verticalLabelPosition=top;flipH=1;rotation=-180;direction=west;movable=1;rotatable=1;deletable=1;editable=1;locked=0;connectable=1;container=0;" vertex="1" parent="1">
          <mxGeometry x="642" y="477" width="5" height="10" as="geometry" />
        </mxCell>
        <mxCell id="y9AWcN6c3iYSvr69kqb8-3" value="" style="html=1;rounded=0;fontSize=14;" vertex="1" parent="1">
          <mxGeometry x="646" y="478" width="7.874" height="7.874" as="geometry" />
        </mxCell>
        <mxCell id="y9AWcN6c3iYSvr69kqb8-5" style="edgeStyle=orthogonalEdgeStyle;rounded=0;orthogonalLoop=1;jettySize=auto;html=1;exitX=1;exitY=0.5;exitDx=0;exitDy=0;endArrow=none;endFill=0;fontSize=14;" edge="1" parent="1">
          <mxGeometry relative="1" as="geometry">
            <mxPoint x="640" y="335" as="targetPoint" />
            <mxPoint x="395" y="334" as="sourcePoint" />
            <Array as="points">
              <mxPoint x="395" y="335" />
              <mxPoint x="500" y="335" />
            </Array>
          </mxGeometry>
        </mxCell>
        <mxCell id="y9AWcN6c3iYSvr69kqb8-6" value="" style="shape=requiredInterface;html=1;fontSize=14;align=center;fillColor=none;points=[];aspect=fixed;resizable=1;verticalAlign=bottom;labelPosition=center;verticalLabelPosition=top;flipH=1;rotation=-180;direction=west;movable=1;rotatable=1;deletable=1;editable=1;locked=0;connectable=1;container=0;" vertex="1" parent="1">
          <mxGeometry x="641" y="330" width="5" height="10" as="geometry" />
        </mxCell>
        <mxCell id="y9AWcN6c3iYSvr69kqb8-7" value="" style="html=1;rounded=0;fontSize=14;" vertex="1" parent="1">
          <mxGeometry x="645" y="331" width="7.874" height="7.874" as="geometry" />
        </mxCell>
        <mxCell id="y9AWcN6c3iYSvr69kqb8-8" value="&lt;font style=&quot;font-size: 14px;&quot;&gt;Link Manager&lt;/font&gt;" style="text;html=1;align=center;verticalAlign=middle;resizable=0;points=[];autosize=1;strokeColor=none;fillColor=none;" vertex="1" parent="1">
          <mxGeometry x="664" y="320" width="110" height="30" as="geometry" />
        </mxCell>
        <mxCell id="y9AWcN6c3iYSvr69kqb8-9" value="&lt;font style=&quot;font-size: 14px;&quot;&gt;Link Manager&lt;/font&gt;" style="text;html=1;align=center;verticalAlign=middle;resizable=0;points=[];autosize=1;strokeColor=none;fillColor=none;" vertex="1" parent="1">
          <mxGeometry x="664" y="467" width="110" height="30" as="geometry" />
        </mxCell>
      </root>
    </mxGraphModel>
  </diagram>
  <diagram id="a-gB_r6jDCJv4NAmojCK" name="User Manager">
    <mxGraphModel dx="1358" dy="562" grid="1" gridSize="10" guides="1" tooltips="1" connect="1" arrows="1" fold="1" page="1" pageScale="1" pageWidth="827" pageHeight="1169" math="0" shadow="0">
      <root>
        <mxCell id="0" />
        <mxCell id="1" parent="0" />
        <mxCell id="dP-oNa_ZGT31m06-IUDG-1" value="User Manager" style="fontStyle=1;align=center;verticalAlign=top;childLayout=stackLayout;horizontal=1;horizontalStack=0;resizeParent=1;resizeParentMax=0;resizeLast=0;marginBottom=0;container=0;fontSize=15;" parent="1" vertex="1">
          <mxGeometry x="230" y="80" width="480" height="283.01" as="geometry" />
        </mxCell>
        <mxCell id="dP-oNa_ZGT31m06-IUDG-2" value="" style="shape=module;jettyWidth=10;jettyHeight=4;container=0;fontSize=14;" parent="1" vertex="1">
          <mxGeometry x="640" y="90" width="27" height="20" as="geometry">
            <mxPoint x="-36" y="9" as="offset" />
          </mxGeometry>
        </mxCell>
        <mxCell id="dP-oNa_ZGT31m06-IUDG-3" style="edgeStyle=orthogonalEdgeStyle;rounded=0;orthogonalLoop=1;jettySize=auto;html=1;endArrow=none;endFill=0;fontSize=14;exitX=0.5;exitY=0;exitDx=0;exitDy=0;" parent="1" source="dP-oNa_ZGT31m06-IUDG-4" edge="1">
          <mxGeometry relative="1" as="geometry">
            <mxPoint x="341.75" y="160" as="targetPoint" />
            <Array as="points">
              <mxPoint x="312" y="160" />
            </Array>
            <mxPoint x="240" y="160" as="sourcePoint" />
          </mxGeometry>
        </mxCell>
        <mxCell id="dP-oNa_ZGT31m06-IUDG-4" value="User Information Manager" style="shape=module;align=center;spacingLeft=20;align=center;verticalAlign=top;whiteSpace=wrap;html=1;fontSize=14;" parent="1" vertex="1">
          <mxGeometry x="261.75" y="204.01" width="100" height="55.99" as="geometry" />
        </mxCell>
        <mxCell id="dP-oNa_ZGT31m06-IUDG-5" style="edgeStyle=orthogonalEdgeStyle;rounded=0;orthogonalLoop=1;jettySize=auto;html=1;endArrow=none;endFill=0;fontSize=14;entryX=1.267;entryY=0.5;entryDx=0;entryDy=0;entryPerimeter=0;" parent="1" target="dP-oNa_ZGT31m06-IUDG-21" edge="1">
          <mxGeometry relative="1" as="geometry">
            <mxPoint x="742.75" y="160" as="targetPoint" />
            <mxPoint x="681" y="160" as="sourcePoint" />
            <Array as="points">
              <mxPoint x="711" y="160" />
              <mxPoint x="711" y="160" />
            </Array>
          </mxGeometry>
        </mxCell>
        <mxCell id="dP-oNa_ZGT31m06-IUDG-6" value="Login Manager" style="shape=module;align=center;spacingLeft=20;align=center;verticalAlign=top;whiteSpace=wrap;html=1;fontSize=14;" parent="1" vertex="1">
          <mxGeometry x="370" y="134.94" width="120" height="50" as="geometry" />
        </mxCell>
        <mxCell id="dP-oNa_ZGT31m06-IUDG-7" value="" style="html=1;rounded=0;fontSize=14;" parent="1" vertex="1">
          <mxGeometry x="172" y="227.07000000000005" width="7.874" height="7.874" as="geometry" />
        </mxCell>
        <mxCell id="dP-oNa_ZGT31m06-IUDG-8" style="rounded=0;orthogonalLoop=1;jettySize=auto;html=1;entryX=1.055;entryY=0.473;entryDx=0;entryDy=0;entryPerimeter=0;endArrow=none;endFill=0;fontSize=14;exitX=0.077;exitY=0.504;exitDx=0;exitDy=0;exitPerimeter=0;" parent="1" source="ml8ilDJ8PhIhol9Fbbho-1" edge="1">
          <mxGeometry relative="1" as="geometry">
            <mxPoint x="390" y="309" as="sourcePoint" />
            <mxPoint x="351.8950000000001" y="309.1999999999998" as="targetPoint" />
          </mxGeometry>
        </mxCell>
        <mxCell id="dP-oNa_ZGT31m06-IUDG-9" style="edgeStyle=orthogonalEdgeStyle;rounded=0;orthogonalLoop=1;jettySize=auto;html=1;endArrow=none;endFill=0;fontSize=14;exitX=1;exitY=0.25;exitDx=0;exitDy=0;" parent="1" source="ml8ilDJ8PhIhol9Fbbho-1" edge="1">
          <mxGeometry relative="1" as="geometry">
            <mxPoint x="748.75" y="300" as="targetPoint" />
            <mxPoint x="667" y="300" as="sourcePoint" />
            <Array as="points">
              <mxPoint x="500" y="300" />
            </Array>
          </mxGeometry>
        </mxCell>
        <mxCell id="dP-oNa_ZGT31m06-IUDG-10" value="Role Manager" style="shape=module;align=center;spacingLeft=20;align=center;verticalAlign=top;whiteSpace=wrap;html=1;fontSize=14;" parent="1" vertex="1">
          <mxGeometry x="560" y="134.94" width="120" height="55.06" as="geometry" />
        </mxCell>
        <mxCell id="dP-oNa_ZGT31m06-IUDG-11" style="edgeStyle=orthogonalEdgeStyle;rounded=0;orthogonalLoop=1;jettySize=auto;html=1;entryX=0.975;entryY=0.524;entryDx=0;entryDy=0;entryPerimeter=0;endArrow=none;endFill=0;fontSize=14;exitX=0.073;exitY=0.509;exitDx=0;exitDy=0;exitPerimeter=0;" parent="1" source="dP-oNa_ZGT31m06-IUDG-6" edge="1">
          <mxGeometry relative="1" as="geometry">
            <mxPoint x="400" y="160" as="sourcePoint" />
            <mxPoint x="353.615" y="159.7999999999999" as="targetPoint" />
            <Array as="points">
              <mxPoint x="380" y="160" />
            </Array>
          </mxGeometry>
        </mxCell>
        <mxCell id="dP-oNa_ZGT31m06-IUDG-12" style="rounded=0;orthogonalLoop=1;jettySize=auto;html=1;exitX=0.101;exitY=0.488;exitDx=0;exitDy=0;exitPerimeter=0;endArrow=none;endFill=0;fontSize=14;" parent="1" source="dP-oNa_ZGT31m06-IUDG-4" edge="1">
          <mxGeometry relative="1" as="geometry">
            <mxPoint x="180" y="231" as="targetPoint" />
          </mxGeometry>
        </mxCell>
        <mxCell id="dP-oNa_ZGT31m06-IUDG-13" value="" style="endArrow=none;html=1;rounded=0;exitX=0;exitY=0.5;exitDx=0;exitDy=0;" parent="1" edge="1">
          <mxGeometry width="50" height="50" relative="1" as="geometry">
            <mxPoint x="340.74999999999886" y="308.9369999999999" as="sourcePoint" />
            <mxPoint x="312" y="260" as="targetPoint" />
            <Array as="points">
              <mxPoint x="311.75" y="309" />
            </Array>
          </mxGeometry>
        </mxCell>
        <mxCell id="dP-oNa_ZGT31m06-IUDG-14" value="" style="group;rotation=-90;movable=1;resizable=1;rotatable=1;deletable=1;editable=1;locked=0;connectable=1;" parent="1" vertex="1" connectable="0">
          <mxGeometry x="343.745" y="304.00499999999994" width="9.870000000000005" height="10" as="geometry" />
        </mxCell>
        <mxCell id="dP-oNa_ZGT31m06-IUDG-15" value="" style="ellipse;html=1;fontSize=14;direction=east;movable=1;resizable=1;rotatable=1;deletable=1;editable=1;locked=0;connectable=1;rotation=-360;" parent="dP-oNa_ZGT31m06-IUDG-14" vertex="1">
          <mxGeometry y="1" width="7.874" height="7.874" as="geometry" />
        </mxCell>
        <mxCell id="dP-oNa_ZGT31m06-IUDG-16" value="" style="shape=requiredInterface;html=1;fontSize=14;align=center;fillColor=none;points=[];aspect=fixed;resizable=1;verticalAlign=bottom;labelPosition=center;verticalLabelPosition=top;flipH=1;rotation=-540;direction=west;movable=1;rotatable=1;deletable=1;editable=1;locked=0;connectable=1;" parent="dP-oNa_ZGT31m06-IUDG-14" vertex="1">
          <mxGeometry x="-2" width="5" height="10" as="geometry" />
        </mxCell>
        <mxCell id="dP-oNa_ZGT31m06-IUDG-17" value="" style="group;rotation=-90;movable=1;resizable=1;rotatable=1;deletable=1;editable=1;locked=0;connectable=1;" parent="1" vertex="1" connectable="0">
          <mxGeometry x="344.945" y="155.005" width="9.870000000000005" height="10" as="geometry" />
        </mxCell>
        <mxCell id="dP-oNa_ZGT31m06-IUDG-18" value="" style="ellipse;html=1;fontSize=14;direction=east;movable=1;resizable=1;rotatable=1;deletable=1;editable=1;locked=0;connectable=1;rotation=-360;" parent="dP-oNa_ZGT31m06-IUDG-17" vertex="1">
          <mxGeometry y="1" width="7.874" height="7.874" as="geometry" />
        </mxCell>
        <mxCell id="dP-oNa_ZGT31m06-IUDG-19" value="" style="shape=requiredInterface;html=1;fontSize=14;align=center;fillColor=none;points=[];aspect=fixed;resizable=1;verticalAlign=bottom;labelPosition=center;verticalLabelPosition=top;flipH=1;rotation=-540;direction=west;movable=1;rotatable=1;deletable=1;editable=1;locked=0;connectable=1;" parent="dP-oNa_ZGT31m06-IUDG-17" vertex="1">
          <mxGeometry x="-2" width="5" height="10" as="geometry" />
        </mxCell>
        <mxCell id="dP-oNa_ZGT31m06-IUDG-21" value="" style="shape=requiredInterface;html=1;fontSize=14;align=center;fillColor=none;points=[];aspect=fixed;resizable=1;verticalAlign=bottom;labelPosition=center;verticalLabelPosition=top;flipH=1;rotation=-180;direction=west;movable=1;rotatable=1;deletable=1;editable=1;locked=0;connectable=1;container=0;" parent="1" vertex="1">
          <mxGeometry x="753.75" y="155" width="5" height="10" as="geometry" />
        </mxCell>
        <mxCell id="dP-oNa_ZGT31m06-IUDG-22" value="" style="shape=requiredInterface;html=1;fontSize=14;align=center;fillColor=none;points=[];aspect=fixed;resizable=1;verticalAlign=bottom;labelPosition=center;verticalLabelPosition=top;flipH=1;rotation=-180;direction=west;movable=1;rotatable=1;deletable=1;editable=1;locked=0;connectable=1;container=0;" parent="1" vertex="1">
          <mxGeometry x="749.75" y="295" width="5" height="10" as="geometry" />
        </mxCell>
        <mxCell id="dP-oNa_ZGT31m06-IUDG-23" value="" style="html=1;rounded=0;fontSize=14;" parent="1" vertex="1">
          <mxGeometry x="756.75" y="156" width="7.874" height="7.874" as="geometry" />
        </mxCell>
        <mxCell id="dP-oNa_ZGT31m06-IUDG-24" value="" style="html=1;rounded=0;fontSize=14;" parent="1" vertex="1">
          <mxGeometry x="753.75" y="296" width="7.874" height="7.874" as="geometry" />
        </mxCell>
        <mxCell id="ml8ilDJ8PhIhol9Fbbho-1" value="Registration Manager" style="shape=module;align=center;spacingLeft=20;align=center;verticalAlign=top;whiteSpace=wrap;html=1;fontSize=14;" parent="1" vertex="1">
          <mxGeometry x="380" y="284" width="120" height="50" as="geometry" />
        </mxCell>
        <mxCell id="ml8ilDJ8PhIhol9Fbbho-8" style="edgeStyle=orthogonalEdgeStyle;rounded=0;orthogonalLoop=1;jettySize=auto;html=1;endArrow=none;endFill=0;fontSize=14;entryX=0.083;entryY=0.397;entryDx=0;entryDy=0;entryPerimeter=0;" parent="1" target="dP-oNa_ZGT31m06-IUDG-10" edge="1">
          <mxGeometry relative="1" as="geometry">
            <mxPoint x="540" y="159.84" as="sourcePoint" />
            <mxPoint x="570" y="159.84" as="targetPoint" />
            <Array as="points" />
          </mxGeometry>
        </mxCell>
        <mxCell id="ml8ilDJ8PhIhol9Fbbho-18" value="" style="group" parent="1" vertex="1" connectable="0">
          <mxGeometry x="500" y="154.99999999999994" width="42" height="9.870000000000005" as="geometry" />
        </mxCell>
        <mxCell id="ml8ilDJ8PhIhol9Fbbho-7" style="edgeStyle=orthogonalEdgeStyle;rounded=0;orthogonalLoop=1;jettySize=auto;html=1;endArrow=none;endFill=0;fontSize=14;exitX=1;exitY=0.5;exitDx=0;exitDy=0;" parent="ml8ilDJ8PhIhol9Fbbho-18" source="dP-oNa_ZGT31m06-IUDG-6" edge="1">
          <mxGeometry relative="1" as="geometry">
            <mxPoint x="30" y="5.000000000000057" as="targetPoint" />
            <Array as="points">
              <mxPoint y="5.000000000000057" />
              <mxPoint y="5.000000000000057" />
            </Array>
            <mxPoint x="-94.88" y="79.93000000000006" as="sourcePoint" />
          </mxGeometry>
        </mxCell>
        <mxCell id="ml8ilDJ8PhIhol9Fbbho-9" value="" style="group;rotation=-90;movable=1;resizable=1;rotatable=1;deletable=1;editable=1;locked=0;connectable=1;" parent="ml8ilDJ8PhIhol9Fbbho-18" vertex="1" connectable="0">
          <mxGeometry x="32.065000000000055" y="-0.06499999999994088" width="9.870000000000005" height="10" as="geometry" />
        </mxCell>
        <mxCell id="ml8ilDJ8PhIhol9Fbbho-10" value="" style="ellipse;html=1;fontSize=14;direction=east;movable=1;resizable=1;rotatable=1;deletable=1;editable=1;locked=0;connectable=1;rotation=-360;" parent="ml8ilDJ8PhIhol9Fbbho-9" vertex="1">
          <mxGeometry y="1" width="7.874" height="7.874" as="geometry" />
        </mxCell>
        <mxCell id="ml8ilDJ8PhIhol9Fbbho-11" value="" style="shape=requiredInterface;html=1;fontSize=14;align=center;fillColor=none;points=[];aspect=fixed;resizable=1;verticalAlign=bottom;labelPosition=center;verticalLabelPosition=top;flipH=1;rotation=-540;direction=west;movable=1;rotatable=1;deletable=1;editable=1;locked=0;connectable=1;" parent="ml8ilDJ8PhIhol9Fbbho-9" vertex="1">
          <mxGeometry x="-2" width="5" height="10" as="geometry" />
        </mxCell>
        <mxCell id="eP18RnDdxaSORrI8I8aK-2" value="&lt;font style=&quot;font-size: 14px;&quot;&gt;User Interface&lt;/font&gt;" style="text;html=1;align=center;verticalAlign=middle;resizable=0;points=[];autosize=1;strokeColor=none;fillColor=none;" vertex="1" parent="1">
          <mxGeometry x="67" y="216.01" width="110" height="30" as="geometry" />
        </mxCell>
        <mxCell id="eP18RnDdxaSORrI8I8aK-3" value="&lt;font style=&quot;font-size: 14px;&quot;&gt;Model&lt;/font&gt;" style="text;html=1;align=center;verticalAlign=middle;resizable=0;points=[];autosize=1;strokeColor=none;fillColor=none;" vertex="1" parent="1">
          <mxGeometry x="767" y="144.93" width="60" height="30" as="geometry" />
        </mxCell>
        <mxCell id="eP18RnDdxaSORrI8I8aK-4" value="&lt;font style=&quot;font-size: 14px;&quot;&gt;Model&lt;/font&gt;" style="text;html=1;align=center;verticalAlign=middle;resizable=0;points=[];autosize=1;strokeColor=none;fillColor=none;" vertex="1" parent="1">
          <mxGeometry x="767" y="285" width="60" height="30" as="geometry" />
        </mxCell>
        <mxCell id="eP18RnDdxaSORrI8I8aK-5" value="" style="group" vertex="1" connectable="0" parent="1">
          <mxGeometry x="362" y="235" width="405.38" height="10" as="geometry" />
        </mxCell>
        <mxCell id="eP18RnDdxaSORrI8I8aK-6" value="" style="html=1;rounded=0;fontSize=14;" vertex="1" parent="eP18RnDdxaSORrI8I8aK-5">
          <mxGeometry x="392.59" y="1.13" width="7.41" height="7.87" as="geometry" />
        </mxCell>
        <mxCell id="eP18RnDdxaSORrI8I8aK-7" value="" style="shape=requiredInterface;html=1;fontSize=14;align=center;fillColor=none;points=[];aspect=fixed;resizable=0;verticalAlign=bottom;labelPosition=center;verticalLabelPosition=top;flipH=1;rotation=0;" vertex="1" parent="eP18RnDdxaSORrI8I8aK-5">
          <mxGeometry x="386.9037766994586" width="5" height="10" as="geometry" />
        </mxCell>
        <mxCell id="eP18RnDdxaSORrI8I8aK-8" style="rounded=0;orthogonalLoop=1;jettySize=auto;html=1;exitX=1.002;exitY=0.325;exitDx=0;exitDy=0;entryX=0.873;entryY=0.5;entryDx=0;entryDy=0;entryPerimeter=0;endArrow=none;endFill=0;fontSize=14;exitPerimeter=0;" edge="1" parent="eP18RnDdxaSORrI8I8aK-5" target="eP18RnDdxaSORrI8I8aK-7">
          <mxGeometry relative="1" as="geometry">
            <mxPoint y="4.264499999999998" as="sourcePoint" />
          </mxGeometry>
        </mxCell>
        <mxCell id="eP18RnDdxaSORrI8I8aK-9" value="&lt;font style=&quot;font-size: 14px;&quot;&gt;Model&lt;/font&gt;" style="text;html=1;align=center;verticalAlign=middle;resizable=0;points=[];autosize=1;strokeColor=none;fillColor=none;" vertex="1" parent="1">
          <mxGeometry x="761.62" y="225" width="60" height="30" as="geometry" />
        </mxCell>
      </root>
    </mxGraphModel>
  </diagram>
  <diagram id="gl20ge1OXcbQWX7XOwkR" name="Battle Manager">
    <mxGraphModel dx="1075" dy="1614" grid="1" gridSize="10" guides="1" tooltips="1" connect="1" arrows="1" fold="1" page="1" pageScale="1" pageWidth="827" pageHeight="1169" math="0" shadow="0">
      <root>
        <mxCell id="0" />
        <mxCell id="1" parent="0" />
        <mxCell id="38xce7m1GlMQ1iOvZCpn-80" value="Battle Manager" style="fontStyle=1;align=center;verticalAlign=top;childLayout=stackLayout;horizontal=1;horizontalStack=0;resizeParent=1;resizeParentMax=0;resizeLast=0;marginBottom=0;container=0;fontSize=15;" parent="1" vertex="1">
          <mxGeometry x="160" y="92" width="562.13" height="368" as="geometry" />
        </mxCell>
        <mxCell id="38xce7m1GlMQ1iOvZCpn-79" value="" style="shape=module;jettyWidth=10;jettyHeight=4;container=0;fontSize=14;" parent="1" vertex="1">
          <mxGeometry x="737" y="-310" width="27" height="20" as="geometry">
            <mxPoint x="-36" y="9" as="offset" />
          </mxGeometry>
        </mxCell>
        <mxCell id="38xce7m1GlMQ1iOvZCpn-24" value="" style="group" parent="1" vertex="1" connectable="0">
          <mxGeometry x="509" y="230" width="258.38" height="169.01" as="geometry" />
        </mxCell>
        <mxCell id="38xce7m1GlMQ1iOvZCpn-25" value="" style="html=1;rounded=0;fontSize=14;" parent="38xce7m1GlMQ1iOvZCpn-24" vertex="1">
          <mxGeometry x="250.2301321134141" y="1.1300000000001091" width="8.149867886585962" height="7.874" as="geometry" />
        </mxCell>
        <mxCell id="38xce7m1GlMQ1iOvZCpn-26" value="" style="shape=requiredInterface;html=1;fontSize=14;align=center;fillColor=none;points=[];aspect=fixed;resizable=0;verticalAlign=bottom;labelPosition=center;verticalLabelPosition=top;flipH=1;rotation=0;" parent="38xce7m1GlMQ1iOvZCpn-24" vertex="1">
          <mxGeometry x="246.60367512853645" width="5" height="10" as="geometry" />
        </mxCell>
        <mxCell id="38xce7m1GlMQ1iOvZCpn-27" style="rounded=0;orthogonalLoop=1;jettySize=auto;html=1;exitX=1.002;exitY=0.325;exitDx=0;exitDy=0;entryX=0.873;entryY=0.5;entryDx=0;entryDy=0;entryPerimeter=0;endArrow=none;endFill=0;fontSize=14;exitPerimeter=0;" parent="38xce7m1GlMQ1iOvZCpn-24" target="38xce7m1GlMQ1iOvZCpn-26" edge="1">
          <mxGeometry relative="1" as="geometry">
            <mxPoint y="4.264499999999998" as="sourcePoint" />
          </mxGeometry>
        </mxCell>
        <mxCell id="38xce7m1GlMQ1iOvZCpn-2" value="" style="shape=module;jettyWidth=10;jettyHeight=4;container=0;fontSize=14;" parent="1" vertex="1">
          <mxGeometry x="660" y="110" width="27" height="20" as="geometry">
            <mxPoint x="-36" y="9" as="offset" />
          </mxGeometry>
        </mxCell>
        <mxCell id="38xce7m1GlMQ1iOvZCpn-3" style="edgeStyle=orthogonalEdgeStyle;rounded=0;orthogonalLoop=1;jettySize=auto;html=1;endArrow=none;endFill=0;fontSize=14;exitX=0.5;exitY=0;exitDx=0;exitDy=0;" parent="1" source="38xce7m1GlMQ1iOvZCpn-4" edge="1">
          <mxGeometry relative="1" as="geometry">
            <mxPoint x="331.75" y="170" as="targetPoint" />
            <Array as="points">
              <mxPoint x="302" y="170" />
            </Array>
            <mxPoint x="230" y="170" as="sourcePoint" />
          </mxGeometry>
        </mxCell>
        <mxCell id="38xce7m1GlMQ1iOvZCpn-4" value="Split Battle Operation Manager" style="shape=module;align=center;spacingLeft=20;align=center;verticalAlign=top;whiteSpace=wrap;html=1;fontSize=14;" parent="1" vertex="1">
          <mxGeometry x="251.75" y="214.01" width="100" height="55.99" as="geometry" />
        </mxCell>
        <mxCell id="38xce7m1GlMQ1iOvZCpn-6" value="Create Battle Manager" style="shape=module;align=center;spacingLeft=20;align=center;verticalAlign=top;whiteSpace=wrap;html=1;fontSize=14;" parent="1" vertex="1">
          <mxGeometry x="390" y="145" width="120" height="50" as="geometry" />
        </mxCell>
        <mxCell id="38xce7m1GlMQ1iOvZCpn-8" style="rounded=0;orthogonalLoop=1;jettySize=auto;html=1;entryX=1;entryY=0.5;entryDx=0;entryDy=0;endArrow=none;endFill=0;fontSize=14;exitX=0.077;exitY=0.504;exitDx=0;exitDy=0;exitPerimeter=0;" parent="1" source="38xce7m1GlMQ1iOvZCpn-28" target="38xce7m1GlMQ1iOvZCpn-15" edge="1">
          <mxGeometry relative="1" as="geometry">
            <mxPoint x="382.2" y="255" as="sourcePoint" />
            <mxPoint x="344.0950000000001" y="255.19999999999982" as="targetPoint" />
          </mxGeometry>
        </mxCell>
        <mxCell id="38xce7m1GlMQ1iOvZCpn-10" value="Team Invite Manager" style="shape=module;align=center;spacingLeft=20;align=center;verticalAlign=top;whiteSpace=wrap;html=1;fontSize=14;jettyWidth=18;jettyHeight=10;" parent="1" vertex="1">
          <mxGeometry x="390" y="212.40999999999994" width="120" height="55.06" as="geometry" />
        </mxCell>
        <mxCell id="38xce7m1GlMQ1iOvZCpn-11" style="edgeStyle=orthogonalEdgeStyle;rounded=0;orthogonalLoop=1;jettySize=auto;html=1;entryX=0.975;entryY=0.524;entryDx=0;entryDy=0;entryPerimeter=0;endArrow=none;endFill=0;fontSize=14;exitX=0.073;exitY=0.509;exitDx=0;exitDy=0;exitPerimeter=0;" parent="1" source="38xce7m1GlMQ1iOvZCpn-6" edge="1">
          <mxGeometry relative="1" as="geometry">
            <mxPoint x="390" y="170" as="sourcePoint" />
            <mxPoint x="343.615" y="169.7999999999999" as="targetPoint" />
            <Array as="points">
              <mxPoint x="370" y="170" />
            </Array>
          </mxGeometry>
        </mxCell>
        <mxCell id="38xce7m1GlMQ1iOvZCpn-12" style="rounded=0;orthogonalLoop=1;jettySize=auto;html=1;exitX=0.101;exitY=0.488;exitDx=0;exitDy=0;exitPerimeter=0;endArrow=none;endFill=0;fontSize=14;entryX=1;entryY=0.5;entryDx=0;entryDy=0;" parent="1" source="38xce7m1GlMQ1iOvZCpn-4" target="38xce7m1GlMQ1iOvZCpn-54" edge="1">
          <mxGeometry relative="1" as="geometry">
            <mxPoint x="170" y="241" as="targetPoint" />
          </mxGeometry>
        </mxCell>
        <mxCell id="38xce7m1GlMQ1iOvZCpn-13" value="" style="endArrow=none;html=1;rounded=0;entryX=0.581;entryY=1.006;entryDx=0;entryDy=0;entryPerimeter=0;" parent="1" edge="1" target="38xce7m1GlMQ1iOvZCpn-4">
          <mxGeometry width="50" height="50" relative="1" as="geometry">
            <mxPoint x="310" y="315" as="sourcePoint" />
            <mxPoint x="310.05" y="276.39975000000004" as="targetPoint" />
            <Array as="points" />
          </mxGeometry>
        </mxCell>
        <mxCell id="38xce7m1GlMQ1iOvZCpn-14" value="" style="group;rotation=-90;movable=1;resizable=1;rotatable=1;deletable=1;editable=1;locked=0;connectable=1;" parent="1" vertex="1" connectable="0">
          <mxGeometry x="333.745" y="355.00499999999994" width="428.385" height="44.99500000000006" as="geometry" />
        </mxCell>
        <mxCell id="38xce7m1GlMQ1iOvZCpn-15" value="" style="ellipse;html=1;fontSize=14;direction=east;movable=1;resizable=1;rotatable=1;deletable=1;editable=1;locked=0;connectable=1;rotation=-360;" parent="38xce7m1GlMQ1iOvZCpn-14" vertex="1">
          <mxGeometry x="3.2" y="-43" width="7.874" height="7.874" as="geometry" />
        </mxCell>
        <mxCell id="38xce7m1GlMQ1iOvZCpn-16" value="" style="shape=requiredInterface;html=1;fontSize=14;align=center;fillColor=none;points=[];aspect=fixed;resizable=1;verticalAlign=bottom;labelPosition=center;verticalLabelPosition=top;flipH=1;rotation=-540;direction=west;movable=1;rotatable=1;deletable=1;editable=1;locked=0;connectable=1;" parent="38xce7m1GlMQ1iOvZCpn-14" vertex="1">
          <mxGeometry x="1.2000000000000002" y="-44" width="5" height="10" as="geometry" />
        </mxCell>
        <mxCell id="38xce7m1GlMQ1iOvZCpn-17" value="" style="group;rotation=-90;movable=1;resizable=1;rotatable=1;deletable=1;editable=1;locked=0;connectable=1;" parent="1" vertex="1" connectable="0">
          <mxGeometry x="334.94499999999994" y="165.005" width="9.870000000000005" height="10" as="geometry" />
        </mxCell>
        <mxCell id="38xce7m1GlMQ1iOvZCpn-18" value="" style="ellipse;html=1;fontSize=14;direction=east;movable=1;resizable=1;rotatable=1;deletable=1;editable=1;locked=0;connectable=1;rotation=-360;" parent="38xce7m1GlMQ1iOvZCpn-17" vertex="1">
          <mxGeometry y="1" width="7.874" height="7.874" as="geometry" />
        </mxCell>
        <mxCell id="38xce7m1GlMQ1iOvZCpn-19" value="" style="shape=requiredInterface;html=1;fontSize=14;align=center;fillColor=none;points=[];aspect=fixed;resizable=1;verticalAlign=bottom;labelPosition=center;verticalLabelPosition=top;flipH=1;rotation=-540;direction=west;movable=1;rotatable=1;deletable=1;editable=1;locked=0;connectable=1;" parent="38xce7m1GlMQ1iOvZCpn-17" vertex="1">
          <mxGeometry x="-2" width="5" height="10" as="geometry" />
        </mxCell>
        <mxCell id="38xce7m1GlMQ1iOvZCpn-28" value="Leave Team Manager" style="shape=module;align=center;spacingLeft=20;align=center;verticalAlign=top;whiteSpace=wrap;html=1;fontSize=14;" parent="1" vertex="1">
          <mxGeometry x="392.2" y="290" width="120" height="50" as="geometry" />
        </mxCell>
        <mxCell id="38xce7m1GlMQ1iOvZCpn-48" style="edgeStyle=orthogonalEdgeStyle;rounded=0;orthogonalLoop=1;jettySize=auto;html=1;endArrow=none;endFill=0;fontSize=14;" parent="1" edge="1">
          <mxGeometry relative="1" as="geometry">
            <mxPoint x="389" y="239.8400000000001" as="sourcePoint" />
            <mxPoint x="399" y="240" as="targetPoint" />
            <Array as="points" />
          </mxGeometry>
        </mxCell>
        <mxCell id="38xce7m1GlMQ1iOvZCpn-54" value="" style="whiteSpace=wrap;html=1;aspect=fixed;" parent="1" vertex="1">
          <mxGeometry x="130" y="237" width="10" height="10" as="geometry" />
        </mxCell>
        <mxCell id="38xce7m1GlMQ1iOvZCpn-51" value="" style="group;rotation=-90;movable=1;resizable=1;rotatable=1;deletable=1;editable=1;locked=0;connectable=1;" parent="1" vertex="1" connectable="0">
          <mxGeometry x="381.1" y="234.9" width="9.87" height="10.06" as="geometry" />
        </mxCell>
        <mxCell id="38xce7m1GlMQ1iOvZCpn-52" value="" style="ellipse;html=1;fontSize=14;direction=east;movable=1;resizable=1;rotatable=1;deletable=1;editable=1;locked=0;connectable=1;rotation=-360;" parent="38xce7m1GlMQ1iOvZCpn-51" vertex="1">
          <mxGeometry y="1.006" width="7.873999999999995" height="7.921244" as="geometry" />
        </mxCell>
        <mxCell id="38xce7m1GlMQ1iOvZCpn-53" value="" style="shape=requiredInterface;html=1;fontSize=14;align=center;fillColor=none;points=[];aspect=fixed;resizable=1;verticalAlign=bottom;labelPosition=center;verticalLabelPosition=top;flipH=1;rotation=-540;direction=west;movable=1;rotatable=1;deletable=1;editable=1;locked=0;connectable=1;" parent="38xce7m1GlMQ1iOvZCpn-51" vertex="1">
          <mxGeometry x="-1.999999999999999" width="4.999999999999997" height="9.999999999999995" as="geometry" />
        </mxCell>
        <mxCell id="38xce7m1GlMQ1iOvZCpn-64" value="" style="endArrow=none;html=1;rounded=0;exitX=1;exitY=0.5;exitDx=0;exitDy=0;entryX=0.87;entryY=0.678;entryDx=0;entryDy=0;entryPerimeter=0;" parent="1" source="38xce7m1GlMQ1iOvZCpn-4" target="38xce7m1GlMQ1iOvZCpn-53" edge="1">
          <mxGeometry width="50" height="50" relative="1" as="geometry">
            <mxPoint x="430" y="300" as="sourcePoint" />
            <mxPoint x="480" y="250" as="targetPoint" />
          </mxGeometry>
        </mxCell>
        <mxCell id="38xce7m1GlMQ1iOvZCpn-72" style="edgeStyle=orthogonalEdgeStyle;rounded=0;orthogonalLoop=1;jettySize=auto;html=1;endArrow=none;endFill=0;fontSize=14;" parent="1" edge="1">
          <mxGeometry relative="1" as="geometry">
            <mxPoint x="761.2" y="314" as="targetPoint" />
            <mxPoint x="512.45" y="314" as="sourcePoint" />
            <Array as="points">
              <mxPoint x="512.45" y="314" />
            </Array>
          </mxGeometry>
        </mxCell>
        <mxCell id="38xce7m1GlMQ1iOvZCpn-73" value="" style="shape=requiredInterface;html=1;fontSize=14;align=center;fillColor=none;points=[];aspect=fixed;resizable=1;verticalAlign=bottom;labelPosition=center;verticalLabelPosition=top;flipH=1;rotation=-180;direction=west;movable=1;rotatable=1;deletable=1;editable=1;locked=0;connectable=1;container=0;" parent="1" vertex="1">
          <mxGeometry x="762.2" y="309" width="5" height="10" as="geometry" />
        </mxCell>
        <mxCell id="38xce7m1GlMQ1iOvZCpn-74" value="" style="html=1;rounded=0;fontSize=14;" parent="1" vertex="1">
          <mxGeometry x="766.2" y="310" width="7.874" height="7.874" as="geometry" />
        </mxCell>
        <mxCell id="38xce7m1GlMQ1iOvZCpn-76" value="" style="shape=requiredInterface;html=1;fontSize=14;align=center;fillColor=none;points=[];aspect=fixed;resizable=1;verticalAlign=bottom;labelPosition=center;verticalLabelPosition=top;flipH=1;rotation=-180;direction=south;movable=1;rotatable=1;deletable=1;editable=1;locked=0;connectable=1;container=0;" parent="1" vertex="1">
          <mxGeometry x="280" y="480" width="10" height="5" as="geometry" />
        </mxCell>
        <mxCell id="38xce7m1GlMQ1iOvZCpn-77" value="" style="html=1;rounded=0;fontSize=14;" parent="1" vertex="1">
          <mxGeometry x="280.5" y="482.5" width="7.874" height="7.874" as="geometry" />
        </mxCell>
        <mxCell id="38xce7m1GlMQ1iOvZCpn-78" value="" style="endArrow=none;html=1;rounded=0;entryX=0.309;entryY=1.01;entryDx=0;entryDy=0;entryPerimeter=0;exitX=0.811;exitY=0.561;exitDx=0;exitDy=0;exitPerimeter=0;" parent="1" source="38xce7m1GlMQ1iOvZCpn-76" target="38xce7m1GlMQ1iOvZCpn-4" edge="1">
          <mxGeometry width="50" height="50" relative="1" as="geometry">
            <mxPoint x="280" y="480" as="sourcePoint" />
            <mxPoint x="281.85" y="352.6158899999998" as="targetPoint" />
          </mxGeometry>
        </mxCell>
        <mxCell id="38xce7m1GlMQ1iOvZCpn-81" style="edgeStyle=orthogonalEdgeStyle;rounded=0;orthogonalLoop=1;jettySize=auto;html=1;endArrow=none;endFill=0;fontSize=14;" parent="1" edge="1">
          <mxGeometry relative="1" as="geometry">
            <mxPoint x="759" y="181" as="targetPoint" />
            <mxPoint x="510.25" y="181" as="sourcePoint" />
            <Array as="points">
              <mxPoint x="510.25" y="181" />
            </Array>
          </mxGeometry>
        </mxCell>
        <mxCell id="38xce7m1GlMQ1iOvZCpn-82" value="" style="shape=requiredInterface;html=1;fontSize=14;align=center;fillColor=none;points=[];aspect=fixed;resizable=1;verticalAlign=bottom;labelPosition=center;verticalLabelPosition=top;flipH=1;rotation=-180;direction=west;movable=1;rotatable=1;deletable=1;editable=1;locked=0;connectable=1;container=0;" parent="1" vertex="1">
          <mxGeometry x="760" y="176" width="5" height="10" as="geometry" />
        </mxCell>
        <mxCell id="38xce7m1GlMQ1iOvZCpn-83" value="" style="html=1;rounded=0;fontSize=14;" parent="1" vertex="1">
          <mxGeometry x="764" y="177" width="7.874" height="7.874" as="geometry" />
        </mxCell>
        <mxCell id="DbKAsgpOSTtsOsfwoziE-1" style="rounded=0;orthogonalLoop=1;jettySize=auto;html=1;entryX=1;entryY=0.5;entryDx=0;entryDy=0;endArrow=none;endFill=0;fontSize=14;exitX=0.088;exitY=0.41;exitDx=0;exitDy=0;exitPerimeter=0;" edge="1" parent="1" source="DbKAsgpOSTtsOsfwoziE-5" target="DbKAsgpOSTtsOsfwoziE-3">
          <mxGeometry relative="1" as="geometry">
            <mxPoint x="383.4" y="319.01" as="sourcePoint" />
            <mxPoint x="345.2950000000001" y="319.2099999999998" as="targetPoint" />
          </mxGeometry>
        </mxCell>
        <mxCell id="DbKAsgpOSTtsOsfwoziE-2" value="" style="group;rotation=-90;movable=1;resizable=1;rotatable=1;deletable=1;editable=1;locked=0;connectable=1;" vertex="1" connectable="0" parent="1">
          <mxGeometry x="338.145" y="374.01499999999993" width="9.870000000000005" height="10" as="geometry" />
        </mxCell>
        <mxCell id="DbKAsgpOSTtsOsfwoziE-3" value="" style="ellipse;html=1;fontSize=14;direction=east;movable=1;resizable=1;rotatable=1;deletable=1;editable=1;locked=0;connectable=1;rotation=-360;" vertex="1" parent="DbKAsgpOSTtsOsfwoziE-2">
          <mxGeometry y="1" width="7.874" height="7.874" as="geometry" />
        </mxCell>
        <mxCell id="DbKAsgpOSTtsOsfwoziE-4" value="" style="shape=requiredInterface;html=1;fontSize=14;align=center;fillColor=none;points=[];aspect=fixed;resizable=1;verticalAlign=bottom;labelPosition=center;verticalLabelPosition=top;flipH=1;rotation=-540;direction=west;movable=1;rotatable=1;deletable=1;editable=1;locked=0;connectable=1;" vertex="1" parent="DbKAsgpOSTtsOsfwoziE-2">
          <mxGeometry x="-2" width="5" height="10" as="geometry" />
        </mxCell>
        <mxCell id="DbKAsgpOSTtsOsfwoziE-5" value="Manual Evaluation Manager" style="shape=module;align=center;spacingLeft=20;align=center;verticalAlign=top;whiteSpace=wrap;html=1;fontSize=14;" vertex="1" parent="1">
          <mxGeometry x="393.4" y="354.01" width="120" height="60.99" as="geometry" />
        </mxCell>
        <mxCell id="DbKAsgpOSTtsOsfwoziE-6" style="edgeStyle=orthogonalEdgeStyle;rounded=0;orthogonalLoop=1;jettySize=auto;html=1;endArrow=none;endFill=0;fontSize=14;" edge="1" parent="1">
          <mxGeometry relative="1" as="geometry">
            <mxPoint x="762.4" y="378.01" as="targetPoint" />
            <mxPoint x="513.65" y="378.01" as="sourcePoint" />
            <Array as="points">
              <mxPoint x="513.65" y="378.01" />
            </Array>
          </mxGeometry>
        </mxCell>
        <mxCell id="DbKAsgpOSTtsOsfwoziE-7" value="" style="shape=requiredInterface;html=1;fontSize=14;align=center;fillColor=none;points=[];aspect=fixed;resizable=1;verticalAlign=bottom;labelPosition=center;verticalLabelPosition=top;flipH=1;rotation=-180;direction=west;movable=1;rotatable=1;deletable=1;editable=1;locked=0;connectable=1;container=0;" vertex="1" parent="1">
          <mxGeometry x="763.4" y="373.01" width="5" height="10" as="geometry" />
        </mxCell>
        <mxCell id="DbKAsgpOSTtsOsfwoziE-8" value="" style="html=1;rounded=0;fontSize=14;" vertex="1" parent="1">
          <mxGeometry x="767.4" y="374.01" width="7.874" height="7.874" as="geometry" />
        </mxCell>
        <mxCell id="DbKAsgpOSTtsOsfwoziE-10" value="" style="endArrow=none;html=1;rounded=0;exitX=1.269;exitY=0.359;exitDx=0;exitDy=0;exitPerimeter=0;" edge="1" parent="1" source="DbKAsgpOSTtsOsfwoziE-4">
          <mxGeometry width="50" height="50" relative="1" as="geometry">
            <mxPoint x="390" y="280" as="sourcePoint" />
            <mxPoint x="300" y="378" as="targetPoint" />
          </mxGeometry>
        </mxCell>
        <mxCell id="DbKAsgpOSTtsOsfwoziE-11" value="" style="endArrow=none;html=1;rounded=0;entryX=0.47;entryY=1.026;entryDx=0;entryDy=0;entryPerimeter=0;" edge="1" parent="1" target="38xce7m1GlMQ1iOvZCpn-4">
          <mxGeometry width="50" height="50" relative="1" as="geometry">
            <mxPoint x="299" y="380" as="sourcePoint" />
            <mxPoint x="349.81" y="373.01" as="targetPoint" />
          </mxGeometry>
        </mxCell>
        <mxCell id="j5FTYBkr9n5mGlQV3Edp-1" value="&lt;font style=&quot;font-size: 14px;&quot;&gt;Battle Interface&lt;/font&gt;" style="text;html=1;align=center;verticalAlign=middle;resizable=0;points=[];autosize=1;strokeColor=none;fillColor=none;" vertex="1" parent="1">
          <mxGeometry x="10" y="227" width="120" height="30" as="geometry" />
        </mxCell>
        <mxCell id="gfYmvmUwqLCCG_0rtQ38-1" value="" style="endArrow=none;html=1;rounded=0;entryX=1.273;entryY=0.409;entryDx=0;entryDy=0;entryPerimeter=0;" edge="1" parent="1" target="38xce7m1GlMQ1iOvZCpn-16">
          <mxGeometry width="50" height="50" relative="1" as="geometry">
            <mxPoint x="310" y="315" as="sourcePoint" />
            <mxPoint x="360" y="330" as="targetPoint" />
          </mxGeometry>
        </mxCell>
        <mxCell id="gfYmvmUwqLCCG_0rtQ38-2" value="&lt;font style=&quot;font-size: 14px;&quot;&gt;Model&lt;/font&gt;" style="text;html=1;align=center;verticalAlign=middle;resizable=0;points=[];autosize=1;strokeColor=none;fillColor=none;" vertex="1" parent="1">
          <mxGeometry x="771.87" y="298.94" width="60" height="30" as="geometry" />
        </mxCell>
        <mxCell id="LR1nHqbKKUqKurDJLA6F-1" value="&lt;font style=&quot;font-size: 14px;&quot;&gt;Model&lt;/font&gt;" style="text;html=1;align=center;verticalAlign=middle;resizable=0;points=[];autosize=1;strokeColor=none;fillColor=none;" vertex="1" parent="1">
          <mxGeometry x="775.75" y="362.5" width="60" height="30" as="geometry" />
        </mxCell>
        <mxCell id="LR1nHqbKKUqKurDJLA6F-2" value="&lt;font style=&quot;font-size: 14px;&quot;&gt;Model&lt;/font&gt;" style="text;html=1;align=center;verticalAlign=middle;resizable=0;points=[];autosize=1;strokeColor=none;fillColor=none;" vertex="1" parent="1">
          <mxGeometry x="763.4" y="219" width="60" height="30" as="geometry" />
        </mxCell>
        <mxCell id="LR1nHqbKKUqKurDJLA6F-3" value="&lt;font style=&quot;font-size: 14px;&quot;&gt;Model&lt;/font&gt;" style="text;html=1;align=center;verticalAlign=middle;resizable=0;points=[];autosize=1;strokeColor=none;fillColor=none;" vertex="1" parent="1">
          <mxGeometry x="768.4" y="166" width="60" height="30" as="geometry" />
        </mxCell>
        <mxCell id="V5S4tPN22BD2D5lDNiS2-1" value="&lt;font style=&quot;font-size: 14px;&quot;&gt;User Interface&lt;br&gt;&lt;/font&gt;" style="text;html=1;align=center;verticalAlign=middle;resizable=0;points=[];autosize=1;strokeColor=none;fillColor=none;" vertex="1" parent="1">
          <mxGeometry x="290" y="467.5" width="110" height="30" as="geometry" />
        </mxCell>
      </root>
    </mxGraphModel>
  </diagram>
  <diagram id="-GnqKPtP0y9ELTargeH5" name="Tournament Manager">
    <mxGraphModel dx="1290" dy="534" grid="1" gridSize="10" guides="1" tooltips="1" connect="1" arrows="1" fold="1" page="1" pageScale="1" pageWidth="827" pageHeight="1169" math="0" shadow="0">
      <root>
        <mxCell id="0" />
        <mxCell id="1" parent="0" />
        <mxCell id="Xtee-mcCqpMFBd0ZsNiy-1" value="Tournament Manager" style="fontStyle=1;align=center;verticalAlign=top;childLayout=stackLayout;horizontal=1;horizontalStack=0;resizeParent=1;resizeParentMax=0;resizeLast=0;marginBottom=0;container=0;fontSize=15;" parent="1" vertex="1">
          <mxGeometry x="178" y="90" width="562.13" height="240" as="geometry" />
        </mxCell>
        <mxCell id="Xtee-mcCqpMFBd0ZsNiy-2" value="" style="group" parent="1" vertex="1" connectable="0">
          <mxGeometry x="529" y="210.99" width="279.38" height="169.01" as="geometry" />
        </mxCell>
        <mxCell id="Xtee-mcCqpMFBd0ZsNiy-3" value="" style="html=1;rounded=0;fontSize=14;" parent="Xtee-mcCqpMFBd0ZsNiy-2" vertex="1">
          <mxGeometry x="250.2301321134141" y="1.1300000000001091" width="8.149867886585962" height="7.874" as="geometry" />
        </mxCell>
        <mxCell id="Xtee-mcCqpMFBd0ZsNiy-4" value="" style="shape=requiredInterface;html=1;fontSize=14;align=center;fillColor=none;points=[];aspect=fixed;resizable=0;verticalAlign=bottom;labelPosition=center;verticalLabelPosition=top;flipH=1;rotation=0;" parent="Xtee-mcCqpMFBd0ZsNiy-2" vertex="1">
          <mxGeometry x="246.60367512853645" width="5" height="10" as="geometry" />
        </mxCell>
        <mxCell id="Xtee-mcCqpMFBd0ZsNiy-5" style="rounded=0;orthogonalLoop=1;jettySize=auto;html=1;exitX=1.002;exitY=0.325;exitDx=0;exitDy=0;entryX=0.873;entryY=0.5;entryDx=0;entryDy=0;entryPerimeter=0;endArrow=none;endFill=0;fontSize=14;exitPerimeter=0;" parent="Xtee-mcCqpMFBd0ZsNiy-2" target="Xtee-mcCqpMFBd0ZsNiy-4" edge="1">
          <mxGeometry relative="1" as="geometry">
            <mxPoint y="4.264499999999998" as="sourcePoint" />
          </mxGeometry>
        </mxCell>
        <mxCell id="Xtee-mcCqpMFBd0ZsNiy-6" value="" style="shape=module;jettyWidth=10;jettyHeight=4;container=0;fontSize=14;" parent="1" vertex="1">
          <mxGeometry x="690" y="105.99000000000001" width="27" height="20" as="geometry">
            <mxPoint x="-36" y="9" as="offset" />
          </mxGeometry>
        </mxCell>
        <mxCell id="Xtee-mcCqpMFBd0ZsNiy-7" style="edgeStyle=orthogonalEdgeStyle;rounded=0;orthogonalLoop=1;jettySize=auto;html=1;endArrow=none;endFill=0;fontSize=14;exitX=0.5;exitY=0;exitDx=0;exitDy=0;" parent="1" source="Xtee-mcCqpMFBd0ZsNiy-8" edge="1">
          <mxGeometry relative="1" as="geometry">
            <mxPoint x="351.75" y="150.99" as="targetPoint" />
            <Array as="points">
              <mxPoint x="322" y="150.99" />
            </Array>
            <mxPoint x="250" y="150.99" as="sourcePoint" />
          </mxGeometry>
        </mxCell>
        <mxCell id="Xtee-mcCqpMFBd0ZsNiy-8" value="Split Tournament Operation Manager" style="shape=module;align=center;spacingLeft=20;align=center;verticalAlign=top;whiteSpace=wrap;html=1;fontSize=14;" parent="1" vertex="1">
          <mxGeometry x="271.75" y="195" width="100" height="75" as="geometry" />
        </mxCell>
        <mxCell id="Xtee-mcCqpMFBd0ZsNiy-9" style="edgeStyle=orthogonalEdgeStyle;rounded=0;orthogonalLoop=1;jettySize=auto;html=1;endArrow=none;endFill=0;fontSize=14;entryX=1.267;entryY=0.5;entryDx=0;entryDy=0;entryPerimeter=0;" parent="1" target="Xtee-mcCqpMFBd0ZsNiy-23" edge="1">
          <mxGeometry relative="1" as="geometry">
            <mxPoint x="779.75" y="140.99" as="targetPoint" />
            <mxPoint x="718" y="140.99" as="sourcePoint" />
            <Array as="points">
              <mxPoint x="748" y="140.99" />
              <mxPoint x="748" y="140.99" />
            </Array>
          </mxGeometry>
        </mxCell>
        <mxCell id="Xtee-mcCqpMFBd0ZsNiy-10" value="&lt;font style=&quot;font-size: 14px;&quot;&gt;Create Tournament Manager&lt;/font&gt;" style="shape=module;align=center;spacingLeft=20;align=center;verticalAlign=top;whiteSpace=wrap;html=1;fontSize=14;" parent="1" vertex="1">
          <mxGeometry x="410" y="125.99" width="120" height="64.01" as="geometry" />
        </mxCell>
        <mxCell id="Xtee-mcCqpMFBd0ZsNiy-13" value="Invite Educator Manager" style="shape=module;align=center;spacingLeft=20;align=center;verticalAlign=top;whiteSpace=wrap;html=1;fontSize=14;jettyWidth=18;jettyHeight=10;" parent="1" vertex="1">
          <mxGeometry x="410" y="193.39999999999998" width="120" height="55.06" as="geometry" />
        </mxCell>
        <mxCell id="Xtee-mcCqpMFBd0ZsNiy-14" style="edgeStyle=orthogonalEdgeStyle;rounded=0;orthogonalLoop=1;jettySize=auto;html=1;entryX=0.975;entryY=0.524;entryDx=0;entryDy=0;entryPerimeter=0;endArrow=none;endFill=0;fontSize=14;" parent="1" edge="1">
          <mxGeometry relative="1" as="geometry">
            <mxPoint x="420" y="151" as="sourcePoint" />
            <mxPoint x="363.615" y="150.7899999999999" as="targetPoint" />
            <Array as="points">
              <mxPoint x="390" y="148" />
              <mxPoint x="390" y="151" />
            </Array>
          </mxGeometry>
        </mxCell>
        <mxCell id="Xtee-mcCqpMFBd0ZsNiy-15" style="rounded=0;orthogonalLoop=1;jettySize=auto;html=1;exitX=0.093;exitY=0.375;exitDx=0;exitDy=0;exitPerimeter=0;endArrow=none;endFill=0;fontSize=14;entryX=1;entryY=0.5;entryDx=0;entryDy=0;" parent="1" source="Xtee-mcCqpMFBd0ZsNiy-8" target="Xtee-mcCqpMFBd0ZsNiy-32" edge="1">
          <mxGeometry relative="1" as="geometry">
            <mxPoint x="190" y="221.99" as="targetPoint" />
          </mxGeometry>
        </mxCell>
        <mxCell id="Xtee-mcCqpMFBd0ZsNiy-20" value="" style="group;rotation=-90;movable=1;resizable=1;rotatable=1;deletable=1;editable=1;locked=0;connectable=1;" parent="1" vertex="1" connectable="0">
          <mxGeometry x="354.94499999999994" y="145.995" width="9.870000000000005" height="10" as="geometry" />
        </mxCell>
        <mxCell id="Xtee-mcCqpMFBd0ZsNiy-21" value="" style="ellipse;html=1;fontSize=14;direction=east;movable=1;resizable=1;rotatable=1;deletable=1;editable=1;locked=0;connectable=1;rotation=-360;" parent="Xtee-mcCqpMFBd0ZsNiy-20" vertex="1">
          <mxGeometry y="1" width="7.874" height="7.874" as="geometry" />
        </mxCell>
        <mxCell id="Xtee-mcCqpMFBd0ZsNiy-22" value="" style="shape=requiredInterface;html=1;fontSize=14;align=center;fillColor=none;points=[];aspect=fixed;resizable=1;verticalAlign=bottom;labelPosition=center;verticalLabelPosition=top;flipH=1;rotation=-540;direction=west;movable=1;rotatable=1;deletable=1;editable=1;locked=0;connectable=1;" parent="Xtee-mcCqpMFBd0ZsNiy-20" vertex="1">
          <mxGeometry x="-2" width="5" height="10" as="geometry" />
        </mxCell>
        <mxCell id="Xtee-mcCqpMFBd0ZsNiy-23" value="" style="shape=requiredInterface;html=1;fontSize=14;align=center;fillColor=none;points=[];aspect=fixed;resizable=1;verticalAlign=bottom;labelPosition=center;verticalLabelPosition=top;flipH=1;rotation=-180;direction=west;movable=1;rotatable=1;deletable=1;editable=1;locked=0;connectable=1;container=0;" parent="1" vertex="1">
          <mxGeometry x="790.75" y="135.99" width="5" height="10" as="geometry" />
        </mxCell>
        <mxCell id="Xtee-mcCqpMFBd0ZsNiy-25" value="" style="html=1;rounded=0;fontSize=14;" parent="1" vertex="1">
          <mxGeometry x="793.75" y="136.99" width="7.874" height="7.874" as="geometry" />
        </mxCell>
        <mxCell id="Xtee-mcCqpMFBd0ZsNiy-28" style="edgeStyle=orthogonalEdgeStyle;rounded=0;orthogonalLoop=1;jettySize=auto;html=1;endArrow=none;endFill=0;fontSize=14;" parent="1" edge="1">
          <mxGeometry relative="1" as="geometry">
            <mxPoint x="577" y="140.83000000000004" as="sourcePoint" />
            <mxPoint x="727" y="140.99" as="targetPoint" />
            <Array as="points" />
          </mxGeometry>
        </mxCell>
        <mxCell id="Xtee-mcCqpMFBd0ZsNiy-29" value="" style="group" parent="1" vertex="1" connectable="0">
          <mxGeometry x="537" y="135.99" width="63" height="9.87" as="geometry" />
        </mxCell>
        <mxCell id="Xtee-mcCqpMFBd0ZsNiy-30" style="edgeStyle=orthogonalEdgeStyle;rounded=0;orthogonalLoop=1;jettySize=auto;html=1;endArrow=none;endFill=0;fontSize=14;exitX=1;exitY=0.5;exitDx=0;exitDy=0;" parent="Xtee-mcCqpMFBd0ZsNiy-29" source="Xtee-mcCqpMFBd0ZsNiy-10" edge="1">
          <mxGeometry relative="1" as="geometry">
            <mxPoint x="45" y="5.000000000000054" as="targetPoint" />
            <Array as="points">
              <mxPoint y="5.000000000000054" />
              <mxPoint y="5.000000000000054" />
            </Array>
            <mxPoint x="-142.32" y="79.93000000000002" as="sourcePoint" />
          </mxGeometry>
        </mxCell>
        <mxCell id="Xtee-mcCqpMFBd0ZsNiy-31" style="edgeStyle=orthogonalEdgeStyle;rounded=0;orthogonalLoop=1;jettySize=auto;html=1;endArrow=none;endFill=0;fontSize=14;" parent="1" edge="1">
          <mxGeometry relative="1" as="geometry">
            <mxPoint x="409" y="220.8300000000001" as="sourcePoint" />
            <mxPoint x="419" y="220.99" as="targetPoint" />
            <Array as="points" />
          </mxGeometry>
        </mxCell>
        <mxCell id="Xtee-mcCqpMFBd0ZsNiy-32" value="" style="whiteSpace=wrap;html=1;aspect=fixed;" parent="1" vertex="1">
          <mxGeometry x="150" y="217.99" width="10" height="10" as="geometry" />
        </mxCell>
        <mxCell id="Xtee-mcCqpMFBd0ZsNiy-33" value="" style="endArrow=none;html=1;rounded=0;entryX=0.75;entryY=1;entryDx=0;entryDy=0;" parent="1" target="Xtee-mcCqpMFBd0ZsNiy-8" edge="1">
          <mxGeometry width="50" height="50" relative="1" as="geometry">
            <mxPoint x="347" y="280.99" as="sourcePoint" />
            <mxPoint x="560" y="230.99" as="targetPoint" />
          </mxGeometry>
        </mxCell>
        <mxCell id="Xtee-mcCqpMFBd0ZsNiy-34" value="" style="endArrow=none;html=1;rounded=0;" parent="1" edge="1">
          <mxGeometry width="50" height="50" relative="1" as="geometry">
            <mxPoint x="347" y="280.99" as="sourcePoint" />
            <mxPoint x="387" y="280.99" as="targetPoint" />
          </mxGeometry>
        </mxCell>
        <mxCell id="Xtee-mcCqpMFBd0ZsNiy-35" value="&lt;font style=&quot;font-size: 14px;&quot;&gt;Close Tournament Manager&lt;/font&gt;" style="shape=module;align=center;spacingLeft=20;align=center;verticalAlign=top;whiteSpace=wrap;html=1;fontSize=14;" parent="1" vertex="1">
          <mxGeometry x="409" y="254.39" width="120" height="55.06" as="geometry" />
        </mxCell>
        <mxCell id="Xtee-mcCqpMFBd0ZsNiy-36" style="rounded=0;orthogonalLoop=1;jettySize=auto;html=1;entryX=1;entryY=0.5;entryDx=0;entryDy=0;endArrow=none;endFill=0;fontSize=14;" parent="1" target="Xtee-mcCqpMFBd0ZsNiy-38" edge="1">
          <mxGeometry relative="1" as="geometry">
            <mxPoint x="419" y="279.99" as="sourcePoint" />
            <mxPoint x="396.21500000000015" y="220.1199999999999" as="targetPoint" />
          </mxGeometry>
        </mxCell>
        <mxCell id="Xtee-mcCqpMFBd0ZsNiy-37" value="" style="group;rotation=-90;movable=1;resizable=1;rotatable=1;deletable=1;editable=1;locked=0;connectable=1;" parent="1" vertex="1" connectable="0">
          <mxGeometry x="389.06500000000005" y="274.925" width="9.870000000000005" height="10" as="geometry" />
        </mxCell>
        <mxCell id="Xtee-mcCqpMFBd0ZsNiy-38" value="" style="ellipse;html=1;fontSize=14;direction=east;movable=1;resizable=1;rotatable=1;deletable=1;editable=1;locked=0;connectable=1;rotation=-360;" parent="Xtee-mcCqpMFBd0ZsNiy-37" vertex="1">
          <mxGeometry y="1" width="7.874" height="7.874" as="geometry" />
        </mxCell>
        <mxCell id="Xtee-mcCqpMFBd0ZsNiy-39" value="" style="shape=requiredInterface;html=1;fontSize=14;align=center;fillColor=none;points=[];aspect=fixed;resizable=1;verticalAlign=bottom;labelPosition=center;verticalLabelPosition=top;flipH=1;rotation=-540;direction=west;movable=1;rotatable=1;deletable=1;editable=1;locked=0;connectable=1;" parent="Xtee-mcCqpMFBd0ZsNiy-37" vertex="1">
          <mxGeometry x="-2" width="5" height="10" as="geometry" />
        </mxCell>
        <mxCell id="Xtee-mcCqpMFBd0ZsNiy-40" value="" style="group;rotation=-90;movable=1;resizable=1;rotatable=1;deletable=1;editable=1;locked=0;connectable=1;" parent="1" vertex="1" connectable="0">
          <mxGeometry x="401.1" y="215.89" width="9.87" height="10.06" as="geometry" />
        </mxCell>
        <mxCell id="Xtee-mcCqpMFBd0ZsNiy-41" value="" style="ellipse;html=1;fontSize=14;direction=east;movable=1;resizable=1;rotatable=1;deletable=1;editable=1;locked=0;connectable=1;rotation=-360;" parent="Xtee-mcCqpMFBd0ZsNiy-40" vertex="1">
          <mxGeometry y="1.006" width="7.873999999999995" height="7.921244" as="geometry" />
        </mxCell>
        <mxCell id="Xtee-mcCqpMFBd0ZsNiy-42" value="" style="shape=requiredInterface;html=1;fontSize=14;align=center;fillColor=none;points=[];aspect=fixed;resizable=1;verticalAlign=bottom;labelPosition=center;verticalLabelPosition=top;flipH=1;rotation=-540;direction=west;movable=1;rotatable=1;deletable=1;editable=1;locked=0;connectable=1;" parent="Xtee-mcCqpMFBd0ZsNiy-40" vertex="1">
          <mxGeometry x="-1.999999999999999" width="4.999999999999997" height="9.999999999999995" as="geometry" />
        </mxCell>
        <mxCell id="Xtee-mcCqpMFBd0ZsNiy-43" value="" style="endArrow=none;html=1;rounded=0;exitX=0.989;exitY=0.376;exitDx=0;exitDy=0;entryX=0.87;entryY=0.678;entryDx=0;entryDy=0;entryPerimeter=0;exitPerimeter=0;" parent="1" source="Xtee-mcCqpMFBd0ZsNiy-8" target="Xtee-mcCqpMFBd0ZsNiy-42" edge="1">
          <mxGeometry width="50" height="50" relative="1" as="geometry">
            <mxPoint x="450" y="280.99" as="sourcePoint" />
            <mxPoint x="500" y="230.99" as="targetPoint" />
          </mxGeometry>
        </mxCell>
        <mxCell id="Xtee-mcCqpMFBd0ZsNiy-48" style="edgeStyle=orthogonalEdgeStyle;rounded=0;orthogonalLoop=1;jettySize=auto;html=1;endArrow=none;endFill=0;fontSize=14;" parent="1" edge="1">
          <mxGeometry relative="1" as="geometry">
            <mxPoint x="778" y="280.99" as="targetPoint" />
            <mxPoint x="529.25" y="280.99" as="sourcePoint" />
            <Array as="points">
              <mxPoint x="529.25" y="280.99" />
            </Array>
          </mxGeometry>
        </mxCell>
        <mxCell id="Xtee-mcCqpMFBd0ZsNiy-49" value="" style="shape=requiredInterface;html=1;fontSize=14;align=center;fillColor=none;points=[];aspect=fixed;resizable=1;verticalAlign=bottom;labelPosition=center;verticalLabelPosition=top;flipH=1;rotation=-180;direction=west;movable=1;rotatable=1;deletable=1;editable=1;locked=0;connectable=1;container=0;" parent="1" vertex="1">
          <mxGeometry x="779" y="275.99" width="5" height="10" as="geometry" />
        </mxCell>
        <mxCell id="Xtee-mcCqpMFBd0ZsNiy-50" value="" style="html=1;rounded=0;fontSize=14;" parent="1" vertex="1">
          <mxGeometry x="783" y="276.99" width="7.874" height="7.874" as="geometry" />
        </mxCell>
        <mxCell id="Xtee-mcCqpMFBd0ZsNiy-54" value="" style="shape=requiredInterface;html=1;fontSize=14;align=center;fillColor=none;points=[];aspect=fixed;resizable=1;verticalAlign=bottom;labelPosition=center;verticalLabelPosition=top;flipH=1;rotation=-180;direction=south;movable=1;rotatable=1;deletable=1;editable=1;locked=0;connectable=1;container=0;" parent="1" vertex="1">
          <mxGeometry x="297.5" y="410.49" width="10" height="5" as="geometry" />
        </mxCell>
        <mxCell id="Xtee-mcCqpMFBd0ZsNiy-55" value="" style="html=1;rounded=0;fontSize=14;" parent="1" vertex="1">
          <mxGeometry x="298" y="412.99" width="7.874" height="7.874" as="geometry" />
        </mxCell>
        <mxCell id="Xtee-mcCqpMFBd0ZsNiy-56" value="" style="endArrow=none;html=1;rounded=0;entryX=0.301;entryY=1.011;entryDx=0;entryDy=0;entryPerimeter=0;" parent="1" target="Xtee-mcCqpMFBd0ZsNiy-8" edge="1">
          <mxGeometry width="50" height="50" relative="1" as="geometry">
            <mxPoint x="302" y="410" as="sourcePoint" />
            <mxPoint x="480" y="320.99" as="targetPoint" />
          </mxGeometry>
        </mxCell>
        <mxCell id="yuTazouqRCeAy2-mRgSn-1" value="&lt;font style=&quot;font-size: 14px;&quot;&gt;Model&lt;/font&gt;" style="text;html=1;align=center;verticalAlign=middle;resizable=0;points=[];autosize=1;strokeColor=none;fillColor=none;" vertex="1" parent="1">
          <mxGeometry x="810" y="125.92999999999999" width="60" height="30" as="geometry" />
        </mxCell>
        <mxCell id="yuTazouqRCeAy2-mRgSn-2" value="&lt;font style=&quot;font-size: 14px;&quot;&gt;Model&lt;/font&gt;" style="text;html=1;align=center;verticalAlign=middle;resizable=0;points=[];autosize=1;strokeColor=none;fillColor=none;" vertex="1" parent="1">
          <mxGeometry x="795.75" y="197.99" width="60" height="30" as="geometry" />
        </mxCell>
        <mxCell id="yuTazouqRCeAy2-mRgSn-4" value="&lt;font style=&quot;font-size: 14px;&quot;&gt;Model&lt;/font&gt;" style="text;html=1;align=center;verticalAlign=middle;resizable=0;points=[];autosize=1;strokeColor=none;fillColor=none;" vertex="1" parent="1">
          <mxGeometry x="801.62" y="264.92" width="60" height="30" as="geometry" />
        </mxCell>
        <mxCell id="qv5LeQ_j94DCz9aIwd-Q-1" value="&lt;font style=&quot;font-size: 14px;&quot;&gt;Tournament Interface&lt;/font&gt;" style="text;html=1;align=center;verticalAlign=middle;resizable=0;points=[];autosize=1;strokeColor=none;fillColor=none;" vertex="1" parent="1">
          <mxGeometry y="207.99" width="160" height="30" as="geometry" />
        </mxCell>
        <mxCell id="iMDAFeR0zGTX9sYVtAAp-1" value="&lt;font style=&quot;font-size: 14px;&quot;&gt;User Interface&lt;br&gt;&lt;/font&gt;" style="text;html=1;align=center;verticalAlign=middle;resizable=0;points=[];autosize=1;strokeColor=none;fillColor=none;" vertex="1" parent="1">
          <mxGeometry x="307.5" y="401.93" width="110" height="30" as="geometry" />
        </mxCell>
      </root>
    </mxGraphModel>
  </diagram>
  <diagram id="uQ6hYImwgwXkMHLgNbgo" name="Automatic Evaluation Manager">
    <mxGraphModel dx="890" dy="368" grid="1" gridSize="10" guides="1" tooltips="1" connect="1" arrows="1" fold="1" page="1" pageScale="1" pageWidth="827" pageHeight="1169" math="0" shadow="0">
      <root>
        <mxCell id="0" />
        <mxCell id="1" parent="0" />
        <mxCell id="0pFMzVgguQF-G5jPvXJ9-1" value="Automatic Evaluation Manager" style="fontStyle=1;align=center;verticalAlign=top;childLayout=stackLayout;horizontal=1;horizontalStack=0;resizeParent=1;resizeParentMax=0;resizeLast=0;marginBottom=0;container=0;fontSize=15;" vertex="1" parent="1">
          <mxGeometry x="174" y="85.01" width="506" height="268" as="geometry" />
        </mxCell>
        <mxCell id="0pFMzVgguQF-G5jPvXJ9-2" value="" style="shape=module;jettyWidth=10;jettyHeight=4;container=0;fontSize=14;" vertex="1" parent="1">
          <mxGeometry x="631.75" y="108" width="27" height="20" as="geometry">
            <mxPoint x="-36" y="9" as="offset" />
          </mxGeometry>
        </mxCell>
        <mxCell id="0pFMzVgguQF-G5jPvXJ9-3" style="edgeStyle=orthogonalEdgeStyle;rounded=0;orthogonalLoop=1;jettySize=auto;html=1;exitX=0.5;exitY=0;exitDx=0;exitDy=0;endArrow=none;endFill=0;fontSize=14;" edge="1" parent="1" source="0pFMzVgguQF-G5jPvXJ9-4">
          <mxGeometry relative="1" as="geometry">
            <mxPoint x="282.75" y="150" as="targetPoint" />
            <Array as="points">
              <mxPoint x="252.75" y="150" />
            </Array>
          </mxGeometry>
        </mxCell>
        <mxCell id="0pFMzVgguQF-G5jPvXJ9-4" value="Evaluation Manager" style="shape=module;align=center;spacingLeft=20;align=center;verticalAlign=top;whiteSpace=wrap;html=1;fontSize=14;" vertex="1" parent="1">
          <mxGeometry x="202.75" y="194.01" width="100" height="50" as="geometry" />
        </mxCell>
        <mxCell id="0pFMzVgguQF-G5jPvXJ9-5" style="edgeStyle=orthogonalEdgeStyle;rounded=0;orthogonalLoop=1;jettySize=auto;html=1;endArrow=none;endFill=0;fontSize=14;entryX=1.267;entryY=0.5;entryDx=0;entryDy=0;entryPerimeter=0;" edge="1" parent="1" target="0pFMzVgguQF-G5jPvXJ9-21">
          <mxGeometry relative="1" as="geometry">
            <mxPoint x="692.75" y="150" as="targetPoint" />
            <mxPoint x="460" y="160" as="sourcePoint" />
            <Array as="points">
              <mxPoint x="702" y="160" />
            </Array>
          </mxGeometry>
        </mxCell>
        <mxCell id="0pFMzVgguQF-G5jPvXJ9-6" value="Commit Action&amp;nbsp;Manager" style="shape=module;align=center;spacingLeft=20;align=center;verticalAlign=top;whiteSpace=wrap;html=1;fontSize=14;" vertex="1" parent="1">
          <mxGeometry x="337.75" y="124.94" width="120" height="65.06" as="geometry" />
        </mxCell>
        <mxCell id="0pFMzVgguQF-G5jPvXJ9-7" value="" style="html=1;rounded=0;fontSize=14;" vertex="1" parent="1">
          <mxGeometry x="111" y="215.07000000000005" width="7.874" height="7.874" as="geometry" />
        </mxCell>
        <mxCell id="0pFMzVgguQF-G5jPvXJ9-8" style="rounded=0;orthogonalLoop=1;jettySize=auto;html=1;exitX=0.087;exitY=0.509;exitDx=0;exitDy=0;entryX=1.055;entryY=0.473;entryDx=0;entryDy=0;entryPerimeter=0;endArrow=none;endFill=0;exitPerimeter=0;fontSize=14;" edge="1" parent="1" source="0pFMzVgguQF-G5jPvXJ9-10">
          <mxGeometry relative="1" as="geometry">
            <mxPoint x="402.9000000000001" y="289.44999999999993" as="sourcePoint" />
            <mxPoint x="292.8950000000001" y="299.1999999999998" as="targetPoint" />
          </mxGeometry>
        </mxCell>
        <mxCell id="0pFMzVgguQF-G5jPvXJ9-9" style="edgeStyle=orthogonalEdgeStyle;rounded=0;orthogonalLoop=1;jettySize=auto;html=1;exitX=1;exitY=0.5;exitDx=0;exitDy=0;endArrow=none;endFill=0;fontSize=14;" edge="1" parent="1" source="0pFMzVgguQF-G5jPvXJ9-10">
          <mxGeometry relative="1" as="geometry">
            <mxPoint x="702.75" y="300" as="targetPoint" />
            <mxPoint x="532.75" y="299.73499999999996" as="sourcePoint" />
            <Array as="points">
              <mxPoint x="457.75" y="300" />
              <mxPoint x="562.75" y="300" />
            </Array>
          </mxGeometry>
        </mxCell>
        <mxCell id="0pFMzVgguQF-G5jPvXJ9-10" value="Static Analysis Manager" style="shape=module;align=center;spacingLeft=20;align=center;verticalAlign=top;whiteSpace=wrap;html=1;fontSize=14;" vertex="1" parent="1">
          <mxGeometry x="337.75" y="267.87" width="120" height="62.13" as="geometry" />
        </mxCell>
        <mxCell id="0pFMzVgguQF-G5jPvXJ9-11" style="edgeStyle=orthogonalEdgeStyle;rounded=0;orthogonalLoop=1;jettySize=auto;html=1;entryX=0.975;entryY=0.524;entryDx=0;entryDy=0;entryPerimeter=0;endArrow=none;endFill=0;exitX=0.078;exitY=0.495;exitDx=0;exitDy=0;exitPerimeter=0;fontSize=14;" edge="1" parent="1">
          <mxGeometry relative="1" as="geometry">
            <mxPoint x="347.23" y="149.86000000000007" as="sourcePoint" />
            <mxPoint x="294.615" y="149.7999999999999" as="targetPoint" />
            <Array as="points">
              <mxPoint x="320.75" y="150.16000000000003" />
              <mxPoint x="320.75" y="150.16000000000003" />
            </Array>
          </mxGeometry>
        </mxCell>
        <mxCell id="0pFMzVgguQF-G5jPvXJ9-12" style="rounded=0;orthogonalLoop=1;jettySize=auto;html=1;exitX=0.101;exitY=0.488;exitDx=0;exitDy=0;exitPerimeter=0;entryX=0.946;entryY=0.476;entryDx=0;entryDy=0;entryPerimeter=0;endArrow=none;endFill=0;fontSize=14;" edge="1" parent="1" source="0pFMzVgguQF-G5jPvXJ9-4">
          <mxGeometry relative="1" as="geometry">
            <mxPoint x="119.47629629629637" y="219.11000000000013" as="targetPoint" />
          </mxGeometry>
        </mxCell>
        <mxCell id="0pFMzVgguQF-G5jPvXJ9-13" value="" style="endArrow=none;html=1;rounded=0;entryX=0.5;entryY=1;entryDx=0;entryDy=0;exitX=0;exitY=0.5;exitDx=0;exitDy=0;" edge="1" parent="1">
          <mxGeometry width="50" height="50" relative="1" as="geometry">
            <mxPoint x="281.74999999999886" y="298.9369999999999" as="sourcePoint" />
            <mxPoint x="252.75" y="244.00999999999976" as="targetPoint" />
            <Array as="points">
              <mxPoint x="252.75" y="299" />
            </Array>
          </mxGeometry>
        </mxCell>
        <mxCell id="0pFMzVgguQF-G5jPvXJ9-14" value="" style="group;rotation=-90;movable=1;resizable=1;rotatable=1;deletable=1;editable=1;locked=0;connectable=1;" vertex="1" connectable="0" parent="1">
          <mxGeometry x="284.745" y="294.00499999999994" width="9.870000000000005" height="10" as="geometry" />
        </mxCell>
        <mxCell id="0pFMzVgguQF-G5jPvXJ9-15" value="" style="ellipse;html=1;fontSize=14;direction=east;movable=1;resizable=1;rotatable=1;deletable=1;editable=1;locked=0;connectable=1;rotation=-360;" vertex="1" parent="0pFMzVgguQF-G5jPvXJ9-14">
          <mxGeometry y="1" width="7.874" height="7.874" as="geometry" />
        </mxCell>
        <mxCell id="0pFMzVgguQF-G5jPvXJ9-16" value="" style="shape=requiredInterface;html=1;fontSize=14;align=center;fillColor=none;points=[];aspect=fixed;resizable=1;verticalAlign=bottom;labelPosition=center;verticalLabelPosition=top;flipH=1;rotation=-540;direction=west;movable=1;rotatable=1;deletable=1;editable=1;locked=0;connectable=1;" vertex="1" parent="0pFMzVgguQF-G5jPvXJ9-14">
          <mxGeometry x="-2" width="5" height="10" as="geometry" />
        </mxCell>
        <mxCell id="0pFMzVgguQF-G5jPvXJ9-17" value="" style="group;rotation=-90;movable=1;resizable=1;rotatable=1;deletable=1;editable=1;locked=0;connectable=1;" vertex="1" connectable="0" parent="1">
          <mxGeometry x="285.945" y="145.005" width="9.870000000000005" height="10" as="geometry" />
        </mxCell>
        <mxCell id="0pFMzVgguQF-G5jPvXJ9-18" value="" style="ellipse;html=1;fontSize=14;direction=east;movable=1;resizable=1;rotatable=1;deletable=1;editable=1;locked=0;connectable=1;rotation=-360;" vertex="1" parent="0pFMzVgguQF-G5jPvXJ9-17">
          <mxGeometry y="1" width="7.874" height="7.874" as="geometry" />
        </mxCell>
        <mxCell id="0pFMzVgguQF-G5jPvXJ9-19" value="" style="shape=requiredInterface;html=1;fontSize=14;align=center;fillColor=none;points=[];aspect=fixed;resizable=1;verticalAlign=bottom;labelPosition=center;verticalLabelPosition=top;flipH=1;rotation=-540;direction=west;movable=1;rotatable=1;deletable=1;editable=1;locked=0;connectable=1;" vertex="1" parent="0pFMzVgguQF-G5jPvXJ9-17">
          <mxGeometry x="-2" width="5" height="10" as="geometry" />
        </mxCell>
        <mxCell id="0pFMzVgguQF-G5jPvXJ9-21" value="" style="shape=requiredInterface;html=1;fontSize=14;align=center;fillColor=none;points=[];aspect=fixed;resizable=1;verticalAlign=bottom;labelPosition=center;verticalLabelPosition=top;flipH=1;rotation=-180;direction=west;movable=1;rotatable=1;deletable=1;editable=1;locked=0;connectable=1;container=0;" vertex="1" parent="1">
          <mxGeometry x="703.75" y="155" width="5" height="10" as="geometry" />
        </mxCell>
        <mxCell id="0pFMzVgguQF-G5jPvXJ9-22" value="" style="shape=requiredInterface;html=1;fontSize=14;align=center;fillColor=none;points=[];aspect=fixed;resizable=1;verticalAlign=bottom;labelPosition=center;verticalLabelPosition=top;flipH=1;rotation=-180;direction=west;movable=1;rotatable=1;deletable=1;editable=1;locked=0;connectable=1;container=0;" vertex="1" parent="1">
          <mxGeometry x="703.75" y="295" width="5" height="10" as="geometry" />
        </mxCell>
        <mxCell id="0pFMzVgguQF-G5jPvXJ9-23" value="" style="html=1;rounded=0;fontSize=14;" vertex="1" parent="1">
          <mxGeometry x="706.75" y="156" width="7.874" height="7.874" as="geometry" />
        </mxCell>
        <mxCell id="0pFMzVgguQF-G5jPvXJ9-24" value="" style="html=1;rounded=0;fontSize=14;" vertex="1" parent="1">
          <mxGeometry x="707.75" y="296" width="7.874" height="7.874" as="geometry" />
        </mxCell>
        <mxCell id="RQ3jjch42licIFNO-Myg-3" value="&lt;font style=&quot;font-size: 14px;&quot;&gt;GitHub&amp;nbsp;&lt;/font&gt;" style="text;html=1;align=center;verticalAlign=middle;resizable=0;points=[];autosize=1;strokeColor=none;fillColor=none;" vertex="1" parent="1">
          <mxGeometry x="720" y="142.47" width="70" height="30" as="geometry" />
        </mxCell>
        <mxCell id="RQ3jjch42licIFNO-Myg-4" value="&lt;font style=&quot;font-size: 14px;&quot;&gt;Static Analysis Tools&lt;/font&gt;" style="text;html=1;align=center;verticalAlign=middle;resizable=0;points=[];autosize=1;strokeColor=none;fillColor=none;" vertex="1" parent="1">
          <mxGeometry x="720" y="283.94" width="150" height="30" as="geometry" />
        </mxCell>
        <mxCell id="RQ3jjch42licIFNO-Myg-7" value="" style="shape=requiredInterface;html=1;fontSize=14;align=center;fillColor=none;points=[];aspect=fixed;resizable=1;verticalAlign=bottom;labelPosition=center;verticalLabelPosition=top;flipH=1;rotation=-180;direction=east;movable=1;rotatable=1;deletable=1;editable=1;locked=0;connectable=1;container=0;" vertex="1" parent="1">
          <mxGeometry x="117" y="214" width="5" height="10" as="geometry" />
        </mxCell>
        <mxCell id="RQ3jjch42licIFNO-Myg-8" value="&lt;font style=&quot;font-size: 14px;&quot;&gt;Model&lt;/font&gt;" style="text;html=1;align=center;verticalAlign=middle;resizable=0;points=[];autosize=1;strokeColor=none;fillColor=none;" vertex="1" parent="1">
          <mxGeometry x="40" y="204" width="60" height="30" as="geometry" />
        </mxCell>
      </root>
    </mxGraphModel>
  </diagram>
  <diagram id="eXdBeKRIhJfNbtgy3Jq7" name="Link Manager">
    <mxGraphModel dx="1290" dy="534" grid="1" gridSize="10" guides="1" tooltips="1" connect="1" arrows="1" fold="1" page="1" pageScale="1" pageWidth="827" pageHeight="1169" math="0" shadow="0">
      <root>
        <mxCell id="0" />
        <mxCell id="1" parent="0" />
        <mxCell id="z4ZlLf3jEySO4L2cHvq0-1" value="Link Manager" style="fontStyle=1;align=center;verticalAlign=top;childLayout=stackLayout;horizontal=1;horizontalStack=0;resizeParent=1;resizeParentMax=0;resizeLast=0;marginBottom=0;container=0;fontSize=15;" vertex="1" parent="1">
          <mxGeometry x="160" y="20" width="562.13" height="368" as="geometry" />
        </mxCell>
        <mxCell id="z4ZlLf3jEySO4L2cHvq0-2" value="" style="group" vertex="1" connectable="0" parent="1">
          <mxGeometry x="489" y="168" width="258.38" height="169.01" as="geometry" />
        </mxCell>
        <mxCell id="z4ZlLf3jEySO4L2cHvq0-3" value="" style="html=1;rounded=0;fontSize=14;" vertex="1" parent="z4ZlLf3jEySO4L2cHvq0-2">
          <mxGeometry x="250.2301321134141" y="1.1300000000001091" width="8.149867886585962" height="7.874" as="geometry" />
        </mxCell>
        <mxCell id="z4ZlLf3jEySO4L2cHvq0-4" value="" style="shape=requiredInterface;html=1;fontSize=14;align=center;fillColor=none;points=[];aspect=fixed;resizable=0;verticalAlign=bottom;labelPosition=center;verticalLabelPosition=top;flipH=1;rotation=0;" vertex="1" parent="z4ZlLf3jEySO4L2cHvq0-2">
          <mxGeometry x="246.60367512853645" width="5" height="10" as="geometry" />
        </mxCell>
        <mxCell id="z4ZlLf3jEySO4L2cHvq0-5" style="rounded=0;orthogonalLoop=1;jettySize=auto;html=1;exitX=1.002;exitY=0.325;exitDx=0;exitDy=0;entryX=0.873;entryY=0.5;entryDx=0;entryDy=0;entryPerimeter=0;endArrow=none;endFill=0;fontSize=14;exitPerimeter=0;" edge="1" parent="z4ZlLf3jEySO4L2cHvq0-2" target="z4ZlLf3jEySO4L2cHvq0-4">
          <mxGeometry relative="1" as="geometry">
            <mxPoint y="4.264499999999998" as="sourcePoint" />
          </mxGeometry>
        </mxCell>
        <mxCell id="z4ZlLf3jEySO4L2cHvq0-6" style="edgeStyle=orthogonalEdgeStyle;rounded=0;orthogonalLoop=1;jettySize=auto;html=1;endArrow=none;endFill=0;fontSize=14;exitX=0.5;exitY=0;exitDx=0;exitDy=0;" edge="1" parent="1" source="z4ZlLf3jEySO4L2cHvq0-7">
          <mxGeometry relative="1" as="geometry">
            <mxPoint x="311.75" y="108" as="targetPoint" />
            <Array as="points">
              <mxPoint x="282" y="108" />
            </Array>
            <mxPoint x="210" y="108" as="sourcePoint" />
          </mxGeometry>
        </mxCell>
        <mxCell id="z4ZlLf3jEySO4L2cHvq0-7" value="Split Link Operation Manager" style="shape=module;align=center;spacingLeft=20;align=center;verticalAlign=top;whiteSpace=wrap;html=1;fontSize=14;" vertex="1" parent="1">
          <mxGeometry x="231.75" y="152.01" width="100" height="55.99" as="geometry" />
        </mxCell>
        <mxCell id="z4ZlLf3jEySO4L2cHvq0-9" value="Join Battle Manager" style="shape=module;align=center;spacingLeft=20;align=center;verticalAlign=top;whiteSpace=wrap;html=1;fontSize=14;" vertex="1" parent="1">
          <mxGeometry x="370" y="83" width="120" height="50" as="geometry" />
        </mxCell>
        <mxCell id="z4ZlLf3jEySO4L2cHvq0-10" style="rounded=0;orthogonalLoop=1;jettySize=auto;html=1;entryX=1;entryY=0.5;entryDx=0;entryDy=0;endArrow=none;endFill=0;fontSize=14;exitX=0.077;exitY=0.504;exitDx=0;exitDy=0;exitPerimeter=0;" edge="1" parent="1" source="z4ZlLf3jEySO4L2cHvq0-23" target="z4ZlLf3jEySO4L2cHvq0-16">
          <mxGeometry relative="1" as="geometry">
            <mxPoint x="362.20000000000005" y="193" as="sourcePoint" />
            <mxPoint x="324.095" y="193.19999999999982" as="targetPoint" />
          </mxGeometry>
        </mxCell>
        <mxCell id="z4ZlLf3jEySO4L2cHvq0-11" value="Join Team Manager" style="shape=module;align=center;spacingLeft=20;align=center;verticalAlign=top;whiteSpace=wrap;html=1;fontSize=14;jettyWidth=18;jettyHeight=10;" vertex="1" parent="1">
          <mxGeometry x="370" y="150.40999999999997" width="120" height="55.06" as="geometry" />
        </mxCell>
        <mxCell id="z4ZlLf3jEySO4L2cHvq0-12" style="edgeStyle=orthogonalEdgeStyle;rounded=0;orthogonalLoop=1;jettySize=auto;html=1;entryX=0.975;entryY=0.524;entryDx=0;entryDy=0;entryPerimeter=0;endArrow=none;endFill=0;fontSize=14;exitX=0.073;exitY=0.509;exitDx=0;exitDy=0;exitPerimeter=0;" edge="1" parent="1" source="z4ZlLf3jEySO4L2cHvq0-9">
          <mxGeometry relative="1" as="geometry">
            <mxPoint x="370" y="108" as="sourcePoint" />
            <mxPoint x="323.615" y="107.7999999999999" as="targetPoint" />
            <Array as="points">
              <mxPoint x="350" y="108" />
            </Array>
          </mxGeometry>
        </mxCell>
        <mxCell id="z4ZlLf3jEySO4L2cHvq0-13" style="rounded=0;orthogonalLoop=1;jettySize=auto;html=1;exitX=0.101;exitY=0.488;exitDx=0;exitDy=0;exitPerimeter=0;endArrow=none;endFill=0;fontSize=14;entryX=1;entryY=0.5;entryDx=0;entryDy=0;" edge="1" parent="1" source="z4ZlLf3jEySO4L2cHvq0-7" target="z4ZlLf3jEySO4L2cHvq0-28">
          <mxGeometry relative="1" as="geometry">
            <mxPoint x="150" y="179" as="targetPoint" />
          </mxGeometry>
        </mxCell>
        <mxCell id="z4ZlLf3jEySO4L2cHvq0-14" value="" style="endArrow=none;html=1;rounded=0;entryX=0.581;entryY=1.006;entryDx=0;entryDy=0;entryPerimeter=0;" edge="1" parent="1" target="z4ZlLf3jEySO4L2cHvq0-7">
          <mxGeometry width="50" height="50" relative="1" as="geometry">
            <mxPoint x="290" y="250" as="sourcePoint" />
            <mxPoint x="290.04999999999995" y="214.39975000000004" as="targetPoint" />
            <Array as="points" />
          </mxGeometry>
        </mxCell>
        <mxCell id="z4ZlLf3jEySO4L2cHvq0-15" value="" style="group;rotation=-90;movable=1;resizable=1;rotatable=1;deletable=1;editable=1;locked=0;connectable=1;" vertex="1" connectable="0" parent="1">
          <mxGeometry x="313.745" y="294.00499999999994" width="428.385" height="44.99500000000006" as="geometry" />
        </mxCell>
        <mxCell id="z4ZlLf3jEySO4L2cHvq0-16" value="" style="ellipse;html=1;fontSize=14;direction=east;movable=1;resizable=1;rotatable=1;deletable=1;editable=1;locked=0;connectable=1;rotation=-360;" vertex="1" parent="z4ZlLf3jEySO4L2cHvq0-15">
          <mxGeometry x="3.2" y="-46" width="7.874" height="7.874" as="geometry" />
        </mxCell>
        <mxCell id="z4ZlLf3jEySO4L2cHvq0-18" value="" style="group;rotation=-90;movable=1;resizable=1;rotatable=1;deletable=1;editable=1;locked=0;connectable=1;" vertex="1" connectable="0" parent="1">
          <mxGeometry x="314.94499999999994" y="103.005" width="9.870000000000005" height="10" as="geometry" />
        </mxCell>
        <mxCell id="z4ZlLf3jEySO4L2cHvq0-19" value="" style="ellipse;html=1;fontSize=14;direction=east;movable=1;resizable=1;rotatable=1;deletable=1;editable=1;locked=0;connectable=1;rotation=-360;" vertex="1" parent="z4ZlLf3jEySO4L2cHvq0-18">
          <mxGeometry y="1" width="7.874" height="7.874" as="geometry" />
        </mxCell>
        <mxCell id="z4ZlLf3jEySO4L2cHvq0-20" value="" style="shape=requiredInterface;html=1;fontSize=14;align=center;fillColor=none;points=[];aspect=fixed;resizable=1;verticalAlign=bottom;labelPosition=center;verticalLabelPosition=top;flipH=1;rotation=-540;direction=west;movable=1;rotatable=1;deletable=1;editable=1;locked=0;connectable=1;" vertex="1" parent="z4ZlLf3jEySO4L2cHvq0-18">
          <mxGeometry x="-2" width="5" height="10" as="geometry" />
        </mxCell>
        <mxCell id="z4ZlLf3jEySO4L2cHvq0-23" value="Join Tournament Manager" style="shape=module;align=center;spacingLeft=20;align=center;verticalAlign=top;whiteSpace=wrap;html=1;fontSize=14;" vertex="1" parent="1">
          <mxGeometry x="372.2" y="220.94" width="120" height="62" as="geometry" />
        </mxCell>
        <mxCell id="z4ZlLf3jEySO4L2cHvq0-27" style="edgeStyle=orthogonalEdgeStyle;rounded=0;orthogonalLoop=1;jettySize=auto;html=1;endArrow=none;endFill=0;fontSize=14;" edge="1" parent="1">
          <mxGeometry relative="1" as="geometry">
            <mxPoint x="369" y="177.8400000000001" as="sourcePoint" />
            <mxPoint x="379" y="178" as="targetPoint" />
            <Array as="points" />
          </mxGeometry>
        </mxCell>
        <mxCell id="z4ZlLf3jEySO4L2cHvq0-28" value="" style="whiteSpace=wrap;html=1;aspect=fixed;" vertex="1" parent="1">
          <mxGeometry x="110" y="175" width="10" height="10" as="geometry" />
        </mxCell>
        <mxCell id="z4ZlLf3jEySO4L2cHvq0-29" value="" style="group;rotation=-90;movable=1;resizable=1;rotatable=1;deletable=1;editable=1;locked=0;connectable=1;" vertex="1" connectable="0" parent="1">
          <mxGeometry x="361.1" y="172.89999999999998" width="9.87" height="10.06" as="geometry" />
        </mxCell>
        <mxCell id="z4ZlLf3jEySO4L2cHvq0-30" value="" style="ellipse;html=1;fontSize=14;direction=east;movable=1;resizable=1;rotatable=1;deletable=1;editable=1;locked=0;connectable=1;rotation=-360;" vertex="1" parent="z4ZlLf3jEySO4L2cHvq0-29">
          <mxGeometry y="1.006" width="7.873999999999995" height="7.921244" as="geometry" />
        </mxCell>
        <mxCell id="z4ZlLf3jEySO4L2cHvq0-31" value="" style="shape=requiredInterface;html=1;fontSize=14;align=center;fillColor=none;points=[];aspect=fixed;resizable=1;verticalAlign=bottom;labelPosition=center;verticalLabelPosition=top;flipH=1;rotation=-540;direction=west;movable=1;rotatable=1;deletable=1;editable=1;locked=0;connectable=1;" vertex="1" parent="z4ZlLf3jEySO4L2cHvq0-29">
          <mxGeometry x="-1.999999999999999" width="4.999999999999997" height="9.999999999999995" as="geometry" />
        </mxCell>
        <mxCell id="z4ZlLf3jEySO4L2cHvq0-32" value="" style="endArrow=none;html=1;rounded=0;exitX=1;exitY=0.5;exitDx=0;exitDy=0;entryX=0.87;entryY=0.678;entryDx=0;entryDy=0;entryPerimeter=0;" edge="1" parent="1" source="z4ZlLf3jEySO4L2cHvq0-7" target="z4ZlLf3jEySO4L2cHvq0-31">
          <mxGeometry width="50" height="50" relative="1" as="geometry">
            <mxPoint x="410" y="238" as="sourcePoint" />
            <mxPoint x="460" y="188" as="targetPoint" />
          </mxGeometry>
        </mxCell>
        <mxCell id="z4ZlLf3jEySO4L2cHvq0-37" style="edgeStyle=orthogonalEdgeStyle;rounded=0;orthogonalLoop=1;jettySize=auto;html=1;endArrow=none;endFill=0;fontSize=14;" edge="1" parent="1">
          <mxGeometry relative="1" as="geometry">
            <mxPoint x="741.2" y="252" as="targetPoint" />
            <mxPoint x="492.45000000000005" y="252" as="sourcePoint" />
            <Array as="points">
              <mxPoint x="492.45000000000005" y="252" />
            </Array>
          </mxGeometry>
        </mxCell>
        <mxCell id="z4ZlLf3jEySO4L2cHvq0-38" value="" style="shape=requiredInterface;html=1;fontSize=14;align=center;fillColor=none;points=[];aspect=fixed;resizable=1;verticalAlign=bottom;labelPosition=center;verticalLabelPosition=top;flipH=1;rotation=-180;direction=west;movable=1;rotatable=1;deletable=1;editable=1;locked=0;connectable=1;container=0;" vertex="1" parent="1">
          <mxGeometry x="742.2" y="247" width="5" height="10" as="geometry" />
        </mxCell>
        <mxCell id="z4ZlLf3jEySO4L2cHvq0-39" value="" style="html=1;rounded=0;fontSize=14;" vertex="1" parent="1">
          <mxGeometry x="746.2" y="248" width="7.874" height="7.874" as="geometry" />
        </mxCell>
        <mxCell id="z4ZlLf3jEySO4L2cHvq0-43" style="edgeStyle=orthogonalEdgeStyle;rounded=0;orthogonalLoop=1;jettySize=auto;html=1;endArrow=none;endFill=0;fontSize=14;" edge="1" parent="1">
          <mxGeometry relative="1" as="geometry">
            <mxPoint x="739" y="119" as="targetPoint" />
            <mxPoint x="490.25" y="119" as="sourcePoint" />
            <Array as="points">
              <mxPoint x="490.25" y="119" />
            </Array>
          </mxGeometry>
        </mxCell>
        <mxCell id="z4ZlLf3jEySO4L2cHvq0-44" value="" style="shape=requiredInterface;html=1;fontSize=14;align=center;fillColor=none;points=[];aspect=fixed;resizable=1;verticalAlign=bottom;labelPosition=center;verticalLabelPosition=top;flipH=1;rotation=-180;direction=west;movable=1;rotatable=1;deletable=1;editable=1;locked=0;connectable=1;container=0;" vertex="1" parent="1">
          <mxGeometry x="740" y="114" width="5" height="10" as="geometry" />
        </mxCell>
        <mxCell id="z4ZlLf3jEySO4L2cHvq0-45" value="" style="html=1;rounded=0;fontSize=14;" vertex="1" parent="1">
          <mxGeometry x="744" y="115" width="7.874" height="7.874" as="geometry" />
        </mxCell>
        <mxCell id="z4ZlLf3jEySO4L2cHvq0-46" style="rounded=0;orthogonalLoop=1;jettySize=auto;html=1;entryX=1;entryY=0.5;entryDx=0;entryDy=0;endArrow=none;endFill=0;fontSize=14;exitX=0.088;exitY=0.41;exitDx=0;exitDy=0;exitPerimeter=0;" edge="1" parent="1" source="z4ZlLf3jEySO4L2cHvq0-50" target="z4ZlLf3jEySO4L2cHvq0-48">
          <mxGeometry relative="1" as="geometry">
            <mxPoint x="363.4" y="257.01" as="sourcePoint" />
            <mxPoint x="325.2950000000001" y="257.2099999999998" as="targetPoint" />
          </mxGeometry>
        </mxCell>
        <mxCell id="z4ZlLf3jEySO4L2cHvq0-47" value="" style="group;rotation=-90;movable=1;resizable=1;rotatable=1;deletable=1;editable=1;locked=0;connectable=1;" vertex="1" connectable="0" parent="1">
          <mxGeometry x="318.145" y="312.01499999999993" width="9.870000000000005" height="10" as="geometry" />
        </mxCell>
        <mxCell id="z4ZlLf3jEySO4L2cHvq0-48" value="" style="ellipse;html=1;fontSize=14;direction=east;movable=1;resizable=1;rotatable=1;deletable=1;editable=1;locked=0;connectable=1;rotation=-360;" vertex="1" parent="z4ZlLf3jEySO4L2cHvq0-47">
          <mxGeometry y="1" width="7.874" height="7.874" as="geometry" />
        </mxCell>
        <mxCell id="z4ZlLf3jEySO4L2cHvq0-49" value="" style="shape=requiredInterface;html=1;fontSize=14;align=center;fillColor=none;points=[];aspect=fixed;resizable=1;verticalAlign=bottom;labelPosition=center;verticalLabelPosition=top;flipH=1;rotation=-540;direction=west;movable=1;rotatable=1;deletable=1;editable=1;locked=0;connectable=1;" vertex="1" parent="z4ZlLf3jEySO4L2cHvq0-47">
          <mxGeometry x="-2" width="5" height="10" as="geometry" />
        </mxCell>
        <mxCell id="z4ZlLf3jEySO4L2cHvq0-50" value="Join Collaborators Manager" style="shape=module;align=center;spacingLeft=20;align=center;verticalAlign=top;whiteSpace=wrap;html=1;fontSize=14;" vertex="1" parent="1">
          <mxGeometry x="372.2" y="293" width="120" height="60.99" as="geometry" />
        </mxCell>
        <mxCell id="z4ZlLf3jEySO4L2cHvq0-51" style="edgeStyle=orthogonalEdgeStyle;rounded=0;orthogonalLoop=1;jettySize=auto;html=1;endArrow=none;endFill=0;fontSize=14;" edge="1" parent="1">
          <mxGeometry relative="1" as="geometry">
            <mxPoint x="742.4000000000001" y="316.01" as="targetPoint" />
            <mxPoint x="493.65" y="316.01" as="sourcePoint" />
            <Array as="points">
              <mxPoint x="493.65" y="316.01" />
            </Array>
          </mxGeometry>
        </mxCell>
        <mxCell id="z4ZlLf3jEySO4L2cHvq0-52" value="" style="shape=requiredInterface;html=1;fontSize=14;align=center;fillColor=none;points=[];aspect=fixed;resizable=1;verticalAlign=bottom;labelPosition=center;verticalLabelPosition=top;flipH=1;rotation=-180;direction=west;movable=1;rotatable=1;deletable=1;editable=1;locked=0;connectable=1;container=0;" vertex="1" parent="1">
          <mxGeometry x="743.4000000000001" y="311.01" width="5" height="10" as="geometry" />
        </mxCell>
        <mxCell id="z4ZlLf3jEySO4L2cHvq0-53" value="" style="html=1;rounded=0;fontSize=14;" vertex="1" parent="1">
          <mxGeometry x="747.4000000000001" y="312.01" width="7.874" height="7.874" as="geometry" />
        </mxCell>
        <mxCell id="z4ZlLf3jEySO4L2cHvq0-54" value="" style="endArrow=none;html=1;rounded=0;exitX=1.269;exitY=0.359;exitDx=0;exitDy=0;exitPerimeter=0;" edge="1" parent="1" source="z4ZlLf3jEySO4L2cHvq0-49">
          <mxGeometry width="50" height="50" relative="1" as="geometry">
            <mxPoint x="370" y="218" as="sourcePoint" />
            <mxPoint x="280" y="316" as="targetPoint" />
          </mxGeometry>
        </mxCell>
        <mxCell id="z4ZlLf3jEySO4L2cHvq0-55" value="" style="endArrow=none;html=1;rounded=0;entryX=0.47;entryY=1.026;entryDx=0;entryDy=0;entryPerimeter=0;" edge="1" parent="1" target="z4ZlLf3jEySO4L2cHvq0-7">
          <mxGeometry width="50" height="50" relative="1" as="geometry">
            <mxPoint x="279" y="318" as="sourcePoint" />
            <mxPoint x="329.80999999999995" y="311.01" as="targetPoint" />
          </mxGeometry>
        </mxCell>
        <mxCell id="z4ZlLf3jEySO4L2cHvq0-56" value="" style="endArrow=none;html=1;rounded=0;exitX=1.286;exitY=0.465;exitDx=0;exitDy=0;exitPerimeter=0;" edge="1" parent="1" source="z4ZlLf3jEySO4L2cHvq0-17">
          <mxGeometry width="50" height="50" relative="1" as="geometry">
            <mxPoint x="290" y="260" as="sourcePoint" />
            <mxPoint x="290" y="250" as="targetPoint" />
          </mxGeometry>
        </mxCell>
        <mxCell id="z4ZlLf3jEySO4L2cHvq0-57" value="&lt;font style=&quot;font-size: 14px;&quot;&gt;Model&lt;/font&gt;" style="text;html=1;align=center;verticalAlign=middle;resizable=0;points=[];autosize=1;strokeColor=none;fillColor=none;" vertex="1" parent="1">
          <mxGeometry x="755.7499999999999" y="236.94" width="60" height="30" as="geometry" />
        </mxCell>
        <mxCell id="z4ZlLf3jEySO4L2cHvq0-58" value="Model" style="text;html=1;align=center;verticalAlign=middle;resizable=0;points=[];autosize=1;strokeColor=none;fillColor=none;" vertex="1" parent="1">
          <mxGeometry x="761.6199999999999" y="302.01" width="60" height="30" as="geometry" />
        </mxCell>
        <mxCell id="z4ZlLf3jEySO4L2cHvq0-59" value="&lt;font style=&quot;font-size: 14px;&quot;&gt;Model&lt;/font&gt;" style="text;html=1;align=center;verticalAlign=middle;resizable=0;points=[];autosize=1;strokeColor=none;fillColor=none;" vertex="1" parent="1">
          <mxGeometry x="751.8699999999999" y="155" width="60" height="30" as="geometry" />
        </mxCell>
        <mxCell id="z4ZlLf3jEySO4L2cHvq0-60" value="&lt;font style=&quot;font-size: 14px;&quot;&gt;Model&lt;/font&gt;" style="text;html=1;align=center;verticalAlign=middle;resizable=0;points=[];autosize=1;strokeColor=none;fillColor=none;" vertex="1" parent="1">
          <mxGeometry x="761.6199999999999" y="104" width="60" height="30" as="geometry" />
        </mxCell>
        <mxCell id="z4ZlLf3jEySO4L2cHvq0-61" value="&lt;font style=&quot;font-size: 14px;&quot;&gt;Link Interface&lt;/font&gt;" style="text;html=1;align=center;verticalAlign=middle;resizable=0;points=[];autosize=1;strokeColor=none;fillColor=none;" vertex="1" parent="1">
          <mxGeometry x="5" y="165" width="110" height="30" as="geometry" />
        </mxCell>
        <mxCell id="z4ZlLf3jEySO4L2cHvq0-17" value="" style="shape=requiredInterface;html=1;fontSize=14;align=center;fillColor=none;points=[];aspect=fixed;resizable=1;verticalAlign=bottom;labelPosition=center;verticalLabelPosition=top;flipH=1;rotation=-540;direction=west;movable=1;rotatable=1;deletable=1;editable=1;locked=0;connectable=1;" vertex="1" parent="1">
          <mxGeometry x="313.745" y="246.87499999999994" width="5" height="10" as="geometry" />
        </mxCell>
        <mxCell id="lFL8pkQ_8usW88WkSfSF-1" value="" style="shape=module;jettyWidth=10;jettyHeight=4;container=0;fontSize=14;" vertex="1" parent="1">
          <mxGeometry x="670" y="40" width="27" height="20" as="geometry">
            <mxPoint x="-36" y="9" as="offset" />
          </mxGeometry>
        </mxCell>
      </root>
    </mxGraphModel>
  </diagram>
</mxfile>
